<?xml version="1.0" encoding="utf-8" standalone="no"?>
<!DOCTYPE svg PUBLIC "-//W3C//DTD SVG 1.1//EN"
  "http://www.w3.org/Graphics/SVG/1.1/DTD/svg11.dtd">
<svg xmlns:xlink="http://www.w3.org/1999/xlink" width="732.841875pt" height="476.2425pt" viewBox="0 0 732.841875 476.2425" xmlns="http://www.w3.org/2000/svg" version="1.1">
 <metadata>
  <rdf:RDF xmlns:dc="http://purl.org/dc/elements/1.1/" xmlns:cc="http://creativecommons.org/ns#" xmlns:rdf="http://www.w3.org/1999/02/22-rdf-syntax-ns#">
   <cc:Work>
    <dc:type rdf:resource="http://purl.org/dc/dcmitype/StillImage"/>
    <dc:date>2021-12-14T11:59:30.355482</dc:date>
    <dc:format>image/svg+xml</dc:format>
    <dc:creator>
     <cc:Agent>
      <dc:title>Matplotlib v3.5.1, https://matplotlib.org/</dc:title>
     </cc:Agent>
    </dc:creator>
   </cc:Work>
  </rdf:RDF>
 </metadata>
 <defs>
  <style type="text/css">*{stroke-linejoin: round; stroke-linecap: butt}</style>
 </defs>
 <g id="figure_1">
  <g id="patch_1">
   <path d="M 0 476.2425 
L 732.841875 476.2425 
L 732.841875 0 
L 0 0 
z
" style="fill: #ffffff"/>
  </g>
  <g id="axes_1">
   <g id="patch_2">
    <path d="M 42.770313 442.08 
L 373.970313 442.08 
L 373.970313 122.4 
L 42.770313 122.4 
z
" style="fill: #fafafa"/>
   </g>
   <g id="matplotlib.axis_1">
    <g id="xtick_1">
     <g id="line2d_1">
      <defs>
       <path id="mecfeb2e67f" d="M 0 0 
L 0 -5.5 
" style="stroke: #1e1e1e; stroke-width: 0.8"/>
      </defs>
      <g>
       <use xlink:href="#mecfeb2e67f" x="75.334507" y="442.08" style="fill: #1e1e1e; stroke: #1e1e1e; stroke-width: 0.8"/>
      </g>
     </g>
     <g id="line2d_2">
      <defs>
       <path id="m0a666ebeab" d="M 0 0 
L 0 5.5 
" style="stroke: #1e1e1e; stroke-width: 0.8"/>
      </defs>
      <g>
       <use xlink:href="#m0a666ebeab" x="75.334507" y="122.4" style="fill: #1e1e1e; stroke: #1e1e1e; stroke-width: 0.8"/>
      </g>
     </g>
     <g id="text_1">
      <!-- 10000 -->
      <g style="fill: #1e1e1e" transform="translate(60.283726 453.231562)scale(0.1 -0.1)">
       <defs>
        <path id="DejaVuSansMono-31" d="M 844 531 
L 1825 531 
L 1825 4097 
L 769 3859 
L 769 4434 
L 1819 4666 
L 2450 4666 
L 2450 531 
L 3419 531 
L 3419 0 
L 844 0 
L 844 531 
z
" transform="scale(0.015625)"/>
        <path id="DejaVuSansMono-30" d="M 1509 2344 
Q 1509 2516 1629 2641 
Q 1750 2766 1919 2766 
Q 2094 2766 2219 2641 
Q 2344 2516 2344 2344 
Q 2344 2169 2220 2047 
Q 2097 1925 1919 1925 
Q 1744 1925 1626 2044 
Q 1509 2163 1509 2344 
z
M 1925 4250 
Q 1484 4250 1267 3775 
Q 1050 3300 1050 2328 
Q 1050 1359 1267 884 
Q 1484 409 1925 409 
Q 2369 409 2586 884 
Q 2803 1359 2803 2328 
Q 2803 3300 2586 3775 
Q 2369 4250 1925 4250 
z
M 1925 4750 
Q 2672 4750 3055 4137 
Q 3438 3525 3438 2328 
Q 3438 1134 3055 521 
Q 2672 -91 1925 -91 
Q 1178 -91 797 521 
Q 416 1134 416 2328 
Q 416 3525 797 4137 
Q 1178 4750 1925 4750 
z
" transform="scale(0.015625)"/>
       </defs>
       <use xlink:href="#DejaVuSansMono-31"/>
       <use xlink:href="#DejaVuSansMono-30" x="60.205078"/>
       <use xlink:href="#DejaVuSansMono-30" x="120.410156"/>
       <use xlink:href="#DejaVuSansMono-30" x="180.615234"/>
       <use xlink:href="#DejaVuSansMono-30" x="240.820312"/>
      </g>
     </g>
    </g>
    <g id="xtick_2">
     <g id="line2d_3">
      <g>
       <use xlink:href="#mecfeb2e67f" x="133.11642" y="442.08" style="fill: #1e1e1e; stroke: #1e1e1e; stroke-width: 0.8"/>
      </g>
     </g>
     <g id="line2d_4">
      <g>
       <use xlink:href="#m0a666ebeab" x="133.11642" y="122.4" style="fill: #1e1e1e; stroke: #1e1e1e; stroke-width: 0.8"/>
      </g>
     </g>
     <g id="text_2">
      <!-- 20000 -->
      <g style="fill: #1e1e1e" transform="translate(118.065639 453.231562)scale(0.1 -0.1)">
       <defs>
        <path id="DejaVuSansMono-32" d="M 1166 531 
L 3309 531 
L 3309 0 
L 475 0 
L 475 531 
Q 1059 1147 1496 1619 
Q 1934 2091 2100 2284 
Q 2413 2666 2522 2902 
Q 2631 3138 2631 3384 
Q 2631 3775 2401 3997 
Q 2172 4219 1772 4219 
Q 1488 4219 1175 4116 
Q 863 4013 513 3803 
L 513 4441 
Q 834 4594 1145 4672 
Q 1456 4750 1759 4750 
Q 2444 4750 2861 4386 
Q 3278 4022 3278 3431 
Q 3278 3131 3139 2831 
Q 3000 2531 2688 2169 
Q 2513 1966 2180 1606 
Q 1847 1247 1166 531 
z
" transform="scale(0.015625)"/>
       </defs>
       <use xlink:href="#DejaVuSansMono-32"/>
       <use xlink:href="#DejaVuSansMono-30" x="60.205078"/>
       <use xlink:href="#DejaVuSansMono-30" x="120.410156"/>
       <use xlink:href="#DejaVuSansMono-30" x="180.615234"/>
       <use xlink:href="#DejaVuSansMono-30" x="240.820312"/>
      </g>
     </g>
    </g>
    <g id="xtick_3">
     <g id="line2d_5">
      <g>
       <use xlink:href="#mecfeb2e67f" x="190.898333" y="442.08" style="fill: #1e1e1e; stroke: #1e1e1e; stroke-width: 0.8"/>
      </g>
     </g>
     <g id="line2d_6">
      <g>
       <use xlink:href="#m0a666ebeab" x="190.898333" y="122.4" style="fill: #1e1e1e; stroke: #1e1e1e; stroke-width: 0.8"/>
      </g>
     </g>
     <g id="text_3">
      <!-- 30000 -->
      <g style="fill: #1e1e1e" transform="translate(175.847552 453.231562)scale(0.1 -0.1)">
       <defs>
        <path id="DejaVuSansMono-33" d="M 2425 2497 
Q 2884 2375 3128 2064 
Q 3372 1753 3372 1288 
Q 3372 644 2939 276 
Q 2506 -91 1741 -91 
Q 1419 -91 1084 -31 
Q 750 28 428 141 
L 428 769 
Q 747 603 1056 522 
Q 1366 441 1672 441 
Q 2191 441 2469 675 
Q 2747 909 2747 1350 
Q 2747 1756 2469 1995 
Q 2191 2234 1716 2234 
L 1234 2234 
L 1234 2753 
L 1716 2753 
Q 2150 2753 2394 2943 
Q 2638 3134 2638 3475 
Q 2638 3834 2411 4026 
Q 2184 4219 1766 4219 
Q 1488 4219 1191 4156 
Q 894 4094 569 3969 
L 569 4550 
Q 947 4650 1242 4700 
Q 1538 4750 1766 4750 
Q 2447 4750 2855 4408 
Q 3263 4066 3263 3500 
Q 3263 3116 3048 2859 
Q 2834 2603 2425 2497 
z
" transform="scale(0.015625)"/>
       </defs>
       <use xlink:href="#DejaVuSansMono-33"/>
       <use xlink:href="#DejaVuSansMono-30" x="60.205078"/>
       <use xlink:href="#DejaVuSansMono-30" x="120.410156"/>
       <use xlink:href="#DejaVuSansMono-30" x="180.615234"/>
       <use xlink:href="#DejaVuSansMono-30" x="240.820312"/>
      </g>
     </g>
    </g>
    <g id="xtick_4">
     <g id="line2d_7">
      <g>
       <use xlink:href="#mecfeb2e67f" x="248.680246" y="442.08" style="fill: #1e1e1e; stroke: #1e1e1e; stroke-width: 0.8"/>
      </g>
     </g>
     <g id="line2d_8">
      <g>
       <use xlink:href="#m0a666ebeab" x="248.680246" y="122.4" style="fill: #1e1e1e; stroke: #1e1e1e; stroke-width: 0.8"/>
      </g>
     </g>
     <g id="text_4">
      <!-- 40000 -->
      <g style="fill: #1e1e1e" transform="translate(233.629465 453.231562)scale(0.1 -0.1)">
       <defs>
        <path id="DejaVuSansMono-34" d="M 2297 4091 
L 825 1625 
L 2297 1625 
L 2297 4091 
z
M 2194 4666 
L 2925 4666 
L 2925 1625 
L 3547 1625 
L 3547 1113 
L 2925 1113 
L 2925 0 
L 2297 0 
L 2297 1113 
L 319 1113 
L 319 1709 
L 2194 4666 
z
" transform="scale(0.015625)"/>
       </defs>
       <use xlink:href="#DejaVuSansMono-34"/>
       <use xlink:href="#DejaVuSansMono-30" x="60.205078"/>
       <use xlink:href="#DejaVuSansMono-30" x="120.410156"/>
       <use xlink:href="#DejaVuSansMono-30" x="180.615234"/>
       <use xlink:href="#DejaVuSansMono-30" x="240.820312"/>
      </g>
     </g>
    </g>
    <g id="xtick_5">
     <g id="line2d_9">
      <g>
       <use xlink:href="#mecfeb2e67f" x="306.462159" y="442.08" style="fill: #1e1e1e; stroke: #1e1e1e; stroke-width: 0.8"/>
      </g>
     </g>
     <g id="line2d_10">
      <g>
       <use xlink:href="#m0a666ebeab" x="306.462159" y="122.4" style="fill: #1e1e1e; stroke: #1e1e1e; stroke-width: 0.8"/>
      </g>
     </g>
     <g id="text_5">
      <!-- 50000 -->
      <g style="fill: #1e1e1e" transform="translate(291.411378 453.231562)scale(0.1 -0.1)">
       <defs>
        <path id="DejaVuSansMono-35" d="M 647 4666 
L 3009 4666 
L 3009 4134 
L 1222 4134 
L 1222 2988 
Q 1356 3038 1492 3061 
Q 1628 3084 1766 3084 
Q 2491 3084 2916 2656 
Q 3341 2228 3341 1497 
Q 3341 759 2895 334 
Q 2450 -91 1678 -91 
Q 1306 -91 998 -41 
Q 691 9 447 109 
L 447 750 
Q 734 594 1025 517 
Q 1316 441 1619 441 
Q 2141 441 2423 716 
Q 2706 991 2706 1497 
Q 2706 1997 2414 2275 
Q 2122 2553 1600 2553 
Q 1347 2553 1106 2495 
Q 866 2438 647 2322 
L 647 4666 
z
" transform="scale(0.015625)"/>
       </defs>
       <use xlink:href="#DejaVuSansMono-35"/>
       <use xlink:href="#DejaVuSansMono-30" x="60.205078"/>
       <use xlink:href="#DejaVuSansMono-30" x="120.410156"/>
       <use xlink:href="#DejaVuSansMono-30" x="180.615234"/>
       <use xlink:href="#DejaVuSansMono-30" x="240.820312"/>
      </g>
     </g>
    </g>
    <g id="xtick_6">
     <g id="line2d_11">
      <g>
       <use xlink:href="#mecfeb2e67f" x="364.244072" y="442.08" style="fill: #1e1e1e; stroke: #1e1e1e; stroke-width: 0.8"/>
      </g>
     </g>
     <g id="line2d_12">
      <g>
       <use xlink:href="#m0a666ebeab" x="364.244072" y="122.4" style="fill: #1e1e1e; stroke: #1e1e1e; stroke-width: 0.8"/>
      </g>
     </g>
     <g id="text_6">
      <!-- 60000 -->
      <g style="fill: #1e1e1e" transform="translate(349.193291 453.231562)scale(0.1 -0.1)">
       <defs>
        <path id="DejaVuSansMono-36" d="M 3097 4563 
L 3097 3981 
Q 2900 4097 2678 4158 
Q 2456 4219 2216 4219 
Q 1616 4219 1306 3767 
Q 997 3316 997 2438 
Q 1147 2750 1412 2917 
Q 1678 3084 2022 3084 
Q 2697 3084 3067 2670 
Q 3438 2256 3438 1497 
Q 3438 741 3056 325 
Q 2675 -91 1984 -91 
Q 1172 -91 794 492 
Q 416 1075 416 2328 
Q 416 3509 870 4129 
Q 1325 4750 2188 4750 
Q 2419 4750 2650 4701 
Q 2881 4653 3097 4563 
z
M 1972 2591 
Q 1569 2591 1337 2300 
Q 1106 2009 1106 1497 
Q 1106 984 1337 693 
Q 1569 403 1972 403 
Q 2391 403 2603 679 
Q 2816 956 2816 1497 
Q 2816 2041 2603 2316 
Q 2391 2591 1972 2591 
z
" transform="scale(0.015625)"/>
       </defs>
       <use xlink:href="#DejaVuSansMono-36"/>
       <use xlink:href="#DejaVuSansMono-30" x="60.205078"/>
       <use xlink:href="#DejaVuSansMono-30" x="120.410156"/>
       <use xlink:href="#DejaVuSansMono-30" x="180.615234"/>
       <use xlink:href="#DejaVuSansMono-30" x="240.820312"/>
      </g>
     </g>
    </g>
    <g id="text_7">
     <!-- MAPT -->
     <g style="fill: #1e1e1e" transform="translate(196.329688 466.962812)scale(0.1 -0.1)">
      <defs>
       <path id="DejaVuSansMono-4d" d="M 269 4666 
L 1113 4666 
L 1919 2291 
L 2731 4666 
L 3578 4666 
L 3578 0 
L 2994 0 
L 2994 4122 
L 2163 1663 
L 1684 1663 
L 850 4122 
L 850 0 
L 269 0 
L 269 4666 
z
" transform="scale(0.015625)"/>
       <path id="DejaVuSansMono-41" d="M 1925 4109 
L 1259 1722 
L 2591 1722 
L 1925 4109 
z
M 1544 4666 
L 2309 4666 
L 3738 0 
L 3084 0 
L 2741 1216 
L 1106 1216 
L 769 0 
L 116 0 
L 1544 4666 
z
" transform="scale(0.015625)"/>
       <path id="DejaVuSansMono-50" d="M 1247 4147 
L 1247 2394 
L 1978 2394 
Q 2416 2394 2661 2625 
Q 2906 2856 2906 3272 
Q 2906 3688 2662 3917 
Q 2419 4147 1978 4147 
L 1247 4147 
z
M 616 4666 
L 1978 4666 
Q 2759 4666 3162 4311 
Q 3566 3956 3566 3272 
Q 3566 2581 3164 2228 
Q 2763 1875 1978 1875 
L 1247 1875 
L 1247 0 
L 616 0 
L 616 4666 
z
" transform="scale(0.015625)"/>
       <path id="DejaVuSansMono-54" d="M 147 4666 
L 3706 4666 
L 3706 4134 
L 2247 4134 
L 2247 0 
L 1613 0 
L 1613 4134 
L 147 4134 
L 147 4666 
z
" transform="scale(0.015625)"/>
      </defs>
      <use xlink:href="#DejaVuSansMono-4d"/>
      <use xlink:href="#DejaVuSansMono-41" x="60.205078"/>
      <use xlink:href="#DejaVuSansMono-50" x="120.410156"/>
      <use xlink:href="#DejaVuSansMono-54" x="180.615234"/>
     </g>
    </g>
   </g>
   <g id="matplotlib.axis_2">
    <g id="ytick_1">
     <g id="line2d_13">
      <defs>
       <path id="md11a4ce6ab" d="M 0 0 
L 5.5 0 
" style="stroke: #1e1e1e; stroke-width: 0.8"/>
      </defs>
      <g>
       <use xlink:href="#md11a4ce6ab" x="42.770313" y="427.549091" style="fill: #1e1e1e; stroke: #1e1e1e; stroke-width: 0.8"/>
      </g>
     </g>
     <g id="line2d_14">
      <defs>
       <path id="m24fe55a3ed" d="M 0 0 
L -5.5 0 
" style="stroke: #1e1e1e; stroke-width: 0.8"/>
      </defs>
      <g>
       <use xlink:href="#m24fe55a3ed" x="373.970313" y="427.549091" style="fill: #1e1e1e; stroke: #1e1e1e; stroke-width: 0.8"/>
      </g>
     </g>
     <g id="text_8">
      <!-- 0.0 -->
      <g style="fill: #1e1e1e" transform="translate(21.209375 431.374872)scale(0.1 -0.1)">
       <defs>
        <path id="DejaVuSansMono-2e" d="M 1528 953 
L 2316 953 
L 2316 0 
L 1528 0 
L 1528 953 
z
" transform="scale(0.015625)"/>
       </defs>
       <use xlink:href="#DejaVuSansMono-30"/>
       <use xlink:href="#DejaVuSansMono-2e" x="60.205078"/>
       <use xlink:href="#DejaVuSansMono-30" x="120.410156"/>
      </g>
     </g>
    </g>
    <g id="ytick_2">
     <g id="line2d_15">
      <g>
       <use xlink:href="#md11a4ce6ab" x="42.770313" y="369.425455" style="fill: #1e1e1e; stroke: #1e1e1e; stroke-width: 0.8"/>
      </g>
     </g>
     <g id="line2d_16">
      <g>
       <use xlink:href="#m24fe55a3ed" x="373.970313" y="369.425455" style="fill: #1e1e1e; stroke: #1e1e1e; stroke-width: 0.8"/>
      </g>
     </g>
     <g id="text_9">
      <!-- 0.2 -->
      <g style="fill: #1e1e1e" transform="translate(21.209375 373.251236)scale(0.1 -0.1)">
       <use xlink:href="#DejaVuSansMono-30"/>
       <use xlink:href="#DejaVuSansMono-2e" x="60.205078"/>
       <use xlink:href="#DejaVuSansMono-32" x="120.410156"/>
      </g>
     </g>
    </g>
    <g id="ytick_3">
     <g id="line2d_17">
      <g>
       <use xlink:href="#md11a4ce6ab" x="42.770313" y="311.301818" style="fill: #1e1e1e; stroke: #1e1e1e; stroke-width: 0.8"/>
      </g>
     </g>
     <g id="line2d_18">
      <g>
       <use xlink:href="#m24fe55a3ed" x="373.970313" y="311.301818" style="fill: #1e1e1e; stroke: #1e1e1e; stroke-width: 0.8"/>
      </g>
     </g>
     <g id="text_10">
      <!-- 0.4 -->
      <g style="fill: #1e1e1e" transform="translate(21.209375 315.127599)scale(0.1 -0.1)">
       <use xlink:href="#DejaVuSansMono-30"/>
       <use xlink:href="#DejaVuSansMono-2e" x="60.205078"/>
       <use xlink:href="#DejaVuSansMono-34" x="120.410156"/>
      </g>
     </g>
    </g>
    <g id="ytick_4">
     <g id="line2d_19">
      <g>
       <use xlink:href="#md11a4ce6ab" x="42.770313" y="253.178182" style="fill: #1e1e1e; stroke: #1e1e1e; stroke-width: 0.8"/>
      </g>
     </g>
     <g id="line2d_20">
      <g>
       <use xlink:href="#m24fe55a3ed" x="373.970313" y="253.178182" style="fill: #1e1e1e; stroke: #1e1e1e; stroke-width: 0.8"/>
      </g>
     </g>
     <g id="text_11">
      <!-- 0.6 -->
      <g style="fill: #1e1e1e" transform="translate(21.209375 257.003963)scale(0.1 -0.1)">
       <use xlink:href="#DejaVuSansMono-30"/>
       <use xlink:href="#DejaVuSansMono-2e" x="60.205078"/>
       <use xlink:href="#DejaVuSansMono-36" x="120.410156"/>
      </g>
     </g>
    </g>
    <g id="ytick_5">
     <g id="line2d_21">
      <g>
       <use xlink:href="#md11a4ce6ab" x="42.770313" y="195.054545" style="fill: #1e1e1e; stroke: #1e1e1e; stroke-width: 0.8"/>
      </g>
     </g>
     <g id="line2d_22">
      <g>
       <use xlink:href="#m24fe55a3ed" x="373.970313" y="195.054545" style="fill: #1e1e1e; stroke: #1e1e1e; stroke-width: 0.8"/>
      </g>
     </g>
     <g id="text_12">
      <!-- 0.8 -->
      <g style="fill: #1e1e1e" transform="translate(21.209375 198.880327)scale(0.1 -0.1)">
       <defs>
        <path id="DejaVuSansMono-38" d="M 1925 2216 
Q 1503 2216 1273 1980 
Q 1044 1744 1044 1313 
Q 1044 881 1276 642 
Q 1509 403 1925 403 
Q 2350 403 2579 639 
Q 2809 875 2809 1313 
Q 2809 1741 2576 1978 
Q 2344 2216 1925 2216 
z
M 1375 2478 
Q 972 2581 745 2862 
Q 519 3144 519 3541 
Q 519 4097 897 4423 
Q 1275 4750 1925 4750 
Q 2578 4750 2956 4423 
Q 3334 4097 3334 3541 
Q 3334 3144 3107 2862 
Q 2881 2581 2478 2478 
Q 2947 2375 3195 2062 
Q 3444 1750 3444 1253 
Q 3444 622 3041 265 
Q 2638 -91 1925 -91 
Q 1213 -91 811 264 
Q 409 619 409 1247 
Q 409 1747 657 2061 
Q 906 2375 1375 2478 
z
M 1147 3481 
Q 1147 3106 1347 2909 
Q 1547 2713 1925 2713 
Q 2306 2713 2506 2909 
Q 2706 3106 2706 3481 
Q 2706 3863 2507 4063 
Q 2309 4263 1925 4263 
Q 1547 4263 1347 4061 
Q 1147 3859 1147 3481 
z
" transform="scale(0.015625)"/>
       </defs>
       <use xlink:href="#DejaVuSansMono-30"/>
       <use xlink:href="#DejaVuSansMono-2e" x="60.205078"/>
       <use xlink:href="#DejaVuSansMono-38" x="120.410156"/>
      </g>
     </g>
    </g>
    <g id="ytick_6">
     <g id="line2d_23">
      <g>
       <use xlink:href="#md11a4ce6ab" x="42.770313" y="136.930909" style="fill: #1e1e1e; stroke: #1e1e1e; stroke-width: 0.8"/>
      </g>
     </g>
     <g id="line2d_24">
      <g>
       <use xlink:href="#m24fe55a3ed" x="373.970313" y="136.930909" style="fill: #1e1e1e; stroke: #1e1e1e; stroke-width: 0.8"/>
      </g>
     </g>
     <g id="text_13">
      <!-- 1.0 -->
      <g style="fill: #1e1e1e" transform="translate(21.209375 140.75669)scale(0.1 -0.1)">
       <use xlink:href="#DejaVuSansMono-31"/>
       <use xlink:href="#DejaVuSansMono-2e" x="60.205078"/>
       <use xlink:href="#DejaVuSansMono-30" x="120.410156"/>
      </g>
     </g>
    </g>
    <g id="text_14">
     <!-- Predicted _clinical AD diagnosis -->
     <g style="fill: #1e1e1e" transform="translate(14.851563 378.565)rotate(-90)scale(0.1 -0.1)">
      <defs>
       <path id="DejaVuSansMono-72" d="M 3609 2778 
Q 3425 2922 3234 2987 
Q 3044 3053 2816 3053 
Q 2278 3053 1993 2715 
Q 1709 2378 1709 1741 
L 1709 0 
L 1131 0 
L 1131 3500 
L 1709 3500 
L 1709 2816 
Q 1853 3188 2151 3386 
Q 2450 3584 2859 3584 
Q 3072 3584 3256 3531 
Q 3441 3478 3609 3366 
L 3609 2778 
z
" transform="scale(0.015625)"/>
       <path id="DejaVuSansMono-65" d="M 3475 1894 
L 3475 1613 
L 984 1613 
L 984 1594 
Q 984 1022 1282 709 
Q 1581 397 2125 397 
Q 2400 397 2700 484 
Q 3000 572 3341 750 
L 3341 178 
Q 3013 44 2708 -23 
Q 2403 -91 2119 -91 
Q 1303 -91 843 398 
Q 384 888 384 1747 
Q 384 2584 834 3084 
Q 1284 3584 2034 3584 
Q 2703 3584 3089 3131 
Q 3475 2678 3475 1894 
z
M 2900 2063 
Q 2888 2569 2661 2833 
Q 2434 3097 2009 3097 
Q 1594 3097 1325 2822 
Q 1056 2547 1006 2059 
L 2900 2063 
z
" transform="scale(0.015625)"/>
       <path id="DejaVuSansMono-64" d="M 2681 3053 
L 2681 4863 
L 3256 4863 
L 3256 0 
L 2681 0 
L 2681 441 
Q 2538 181 2298 45 
Q 2059 -91 1747 -91 
Q 1113 -91 748 401 
Q 384 894 384 1759 
Q 384 2613 750 3098 
Q 1116 3584 1747 3584 
Q 2063 3584 2303 3448 
Q 2544 3313 2681 3053 
z
M 991 1747 
Q 991 1078 1203 737 
Q 1416 397 1831 397 
Q 2247 397 2464 740 
Q 2681 1084 2681 1747 
Q 2681 2413 2464 2755 
Q 2247 3097 1831 3097 
Q 1416 3097 1203 2756 
Q 991 2416 991 1747 
z
" transform="scale(0.015625)"/>
       <path id="DejaVuSansMono-69" d="M 800 3500 
L 2272 3500 
L 2272 447 
L 3413 447 
L 3413 0 
L 556 0 
L 556 447 
L 1697 447 
L 1697 3053 
L 800 3053 
L 800 3500 
z
M 1697 4863 
L 2272 4863 
L 2272 4134 
L 1697 4134 
L 1697 4863 
z
" transform="scale(0.015625)"/>
       <path id="DejaVuSansMono-63" d="M 3316 178 
Q 3084 44 2839 -23 
Q 2594 -91 2338 -91 
Q 1525 -91 1067 396 
Q 609 884 609 1747 
Q 609 2609 1067 3096 
Q 1525 3584 2338 3584 
Q 2591 3584 2831 3518 
Q 3072 3453 3316 3316 
L 3316 2713 
Q 3088 2916 2858 3006 
Q 2628 3097 2338 3097 
Q 1797 3097 1506 2747 
Q 1216 2397 1216 1747 
Q 1216 1100 1508 748 
Q 1800 397 2338 397 
Q 2638 397 2875 489 
Q 3113 581 3316 775 
L 3316 178 
z
" transform="scale(0.015625)"/>
       <path id="DejaVuSansMono-74" d="M 1919 4494 
L 1919 3500 
L 3225 3500 
L 3225 3053 
L 1919 3053 
L 1919 1153 
Q 1919 766 2066 612 
Q 2213 459 2578 459 
L 3225 459 
L 3225 0 
L 2522 0 
Q 1875 0 1609 259 
Q 1344 519 1344 1153 
L 1344 3053 
L 409 3053 
L 409 3500 
L 1344 3500 
L 1344 4494 
L 1919 4494 
z
" transform="scale(0.015625)"/>
       <path id="DejaVuSansMono-20" transform="scale(0.015625)"/>
       <path id="DejaVuSansMono-5f" d="M 3853 -1259 
L 3853 -1509 
L 0 -1509 
L 0 -1259 
L 3853 -1259 
z
" transform="scale(0.015625)"/>
       <path id="DejaVuSansMono-6c" d="M 1997 1269 
Q 1997 881 2139 684 
Q 2281 488 2559 488 
L 3231 488 
L 3231 0 
L 2503 0 
Q 1988 0 1705 331 
Q 1422 663 1422 1269 
L 1422 4447 
L 500 4447 
L 500 4897 
L 1997 4897 
L 1997 1269 
z
" transform="scale(0.015625)"/>
       <path id="DejaVuSansMono-6e" d="M 3284 2169 
L 3284 0 
L 2706 0 
L 2706 2169 
Q 2706 2641 2540 2862 
Q 2375 3084 2022 3084 
Q 1619 3084 1401 2798 
Q 1184 2513 1184 1978 
L 1184 0 
L 609 0 
L 609 3500 
L 1184 3500 
L 1184 2975 
Q 1338 3275 1600 3429 
Q 1863 3584 2222 3584 
Q 2756 3584 3020 3232 
Q 3284 2881 3284 2169 
z
" transform="scale(0.015625)"/>
       <path id="DejaVuSansMono-61" d="M 2194 1759 
L 2003 1759 
Q 1500 1759 1245 1582 
Q 991 1406 991 1056 
Q 991 741 1181 566 
Q 1372 391 1709 391 
Q 2184 391 2456 720 
Q 2728 1050 2731 1631 
L 2731 1759 
L 2194 1759 
z
M 3309 1997 
L 3309 0 
L 2731 0 
L 2731 519 
Q 2547 206 2267 57 
Q 1988 -91 1588 -91 
Q 1053 -91 734 211 
Q 416 513 416 1019 
Q 416 1603 808 1906 
Q 1200 2209 1959 2209 
L 2731 2209 
L 2731 2300 
Q 2728 2719 2518 2908 
Q 2309 3097 1850 3097 
Q 1556 3097 1256 3012 
Q 956 2928 672 2766 
L 672 3341 
Q 991 3463 1283 3523 
Q 1575 3584 1850 3584 
Q 2284 3584 2592 3456 
Q 2900 3328 3091 3072 
Q 3209 2916 3259 2686 
Q 3309 2456 3309 1997 
z
" transform="scale(0.015625)"/>
       <path id="DejaVuSansMono-44" d="M 1363 519 
Q 2159 519 2475 911 
Q 2791 1303 2791 2328 
Q 2791 3363 2477 3755 
Q 2163 4147 1363 4147 
L 1063 4147 
L 1063 519 
L 1363 519 
z
M 1375 4666 
Q 2444 4666 2950 4097 
Q 3456 3528 3456 2328 
Q 3456 1134 2950 567 
Q 2444 0 1375 0 
L 428 0 
L 428 4666 
L 1375 4666 
z
" transform="scale(0.015625)"/>
       <path id="DejaVuSansMono-67" d="M 2681 1778 
Q 2681 2425 2470 2761 
Q 2259 3097 1856 3097 
Q 1434 3097 1212 2761 
Q 991 2425 991 1778 
Q 991 1131 1214 792 
Q 1438 453 1863 453 
Q 2259 453 2470 793 
Q 2681 1134 2681 1778 
z
M 3256 225 
Q 3256 -563 2884 -969 
Q 2513 -1375 1791 -1375 
Q 1553 -1375 1293 -1331 
Q 1034 -1288 775 -1203 
L 775 -634 
Q 1081 -778 1331 -847 
Q 1581 -916 1791 -916 
Q 2256 -916 2468 -662 
Q 2681 -409 2681 141 
L 2681 166 
L 2681 556 
Q 2544 263 2306 119 
Q 2069 -25 1728 -25 
Q 1116 -25 750 465 
Q 384 956 384 1778 
Q 384 2603 750 3093 
Q 1116 3584 1728 3584 
Q 2066 3584 2300 3450 
Q 2534 3316 2681 3034 
L 2681 3488 
L 3256 3488 
L 3256 225 
z
" transform="scale(0.015625)"/>
       <path id="DejaVuSansMono-6f" d="M 1925 3097 
Q 1488 3097 1263 2756 
Q 1038 2416 1038 1747 
Q 1038 1081 1263 739 
Q 1488 397 1925 397 
Q 2366 397 2591 739 
Q 2816 1081 2816 1747 
Q 2816 2416 2591 2756 
Q 2366 3097 1925 3097 
z
M 1925 3584 
Q 2653 3584 3039 3112 
Q 3425 2641 3425 1747 
Q 3425 850 3040 379 
Q 2656 -91 1925 -91 
Q 1197 -91 812 379 
Q 428 850 428 1747 
Q 428 2641 812 3112 
Q 1197 3584 1925 3584 
z
" transform="scale(0.015625)"/>
       <path id="DejaVuSansMono-73" d="M 3041 3378 
L 3041 2816 
Q 2794 2959 2544 3031 
Q 2294 3103 2034 3103 
Q 1644 3103 1451 2976 
Q 1259 2850 1259 2591 
Q 1259 2356 1403 2240 
Q 1547 2125 2119 2016 
L 2350 1972 
Q 2778 1891 2998 1647 
Q 3219 1403 3219 1013 
Q 3219 494 2850 201 
Q 2481 -91 1825 -91 
Q 1566 -91 1281 -36 
Q 997 19 666 128 
L 666 722 
Q 988 556 1281 473 
Q 1575 391 1838 391 
Q 2219 391 2428 545 
Q 2638 700 2638 978 
Q 2638 1378 1872 1531 
L 1847 1538 
L 1631 1581 
Q 1134 1678 906 1908 
Q 678 2138 678 2534 
Q 678 3038 1018 3311 
Q 1359 3584 1991 3584 
Q 2272 3584 2531 3532 
Q 2791 3481 3041 3378 
z
" transform="scale(0.015625)"/>
      </defs>
      <use xlink:href="#DejaVuSansMono-50"/>
      <use xlink:href="#DejaVuSansMono-72" x="60.205078"/>
      <use xlink:href="#DejaVuSansMono-65" x="120.410156"/>
      <use xlink:href="#DejaVuSansMono-64" x="180.615234"/>
      <use xlink:href="#DejaVuSansMono-69" x="240.820312"/>
      <use xlink:href="#DejaVuSansMono-63" x="301.025391"/>
      <use xlink:href="#DejaVuSansMono-74" x="361.230469"/>
      <use xlink:href="#DejaVuSansMono-65" x="421.435547"/>
      <use xlink:href="#DejaVuSansMono-64" x="481.640625"/>
      <use xlink:href="#DejaVuSansMono-20" x="541.845703"/>
      <use xlink:href="#DejaVuSansMono-5f" x="602.050781"/>
      <use xlink:href="#DejaVuSansMono-63" x="662.255859"/>
      <use xlink:href="#DejaVuSansMono-6c" x="722.460938"/>
      <use xlink:href="#DejaVuSansMono-69" x="782.666016"/>
      <use xlink:href="#DejaVuSansMono-6e" x="842.871094"/>
      <use xlink:href="#DejaVuSansMono-69" x="903.076172"/>
      <use xlink:href="#DejaVuSansMono-63" x="963.28125"/>
      <use xlink:href="#DejaVuSansMono-61" x="1023.486328"/>
      <use xlink:href="#DejaVuSansMono-6c" x="1083.691406"/>
      <use xlink:href="#DejaVuSansMono-20" x="1143.896484"/>
      <use xlink:href="#DejaVuSansMono-41" x="1204.101562"/>
      <use xlink:href="#DejaVuSansMono-44" x="1264.306641"/>
      <use xlink:href="#DejaVuSansMono-20" x="1324.511719"/>
      <use xlink:href="#DejaVuSansMono-64" x="1384.716797"/>
      <use xlink:href="#DejaVuSansMono-69" x="1444.921875"/>
      <use xlink:href="#DejaVuSansMono-61" x="1505.126953"/>
      <use xlink:href="#DejaVuSansMono-67" x="1565.332031"/>
      <use xlink:href="#DejaVuSansMono-6e" x="1625.537109"/>
      <use xlink:href="#DejaVuSansMono-6f" x="1685.742188"/>
      <use xlink:href="#DejaVuSansMono-73" x="1745.947266"/>
      <use xlink:href="#DejaVuSansMono-69" x="1806.152344"/>
      <use xlink:href="#DejaVuSansMono-73" x="1866.357422"/>
     </g>
    </g>
   </g>
   <g id="line2d_25">
    <defs>
     <path id="m95e4c505be" d="M 0 2 
C 0.530406 2 1.03916 1.789267 1.414214 1.414214 
C 1.789267 1.03916 2 0.530406 2 0 
C 2 -0.530406 1.789267 -1.03916 1.414214 -1.414214 
C 1.03916 -1.789267 0.530406 -2 0 -2 
C -0.530406 -2 -1.03916 -1.789267 -1.414214 -1.414214 
C -1.789267 -1.03916 -2 -0.530406 -2 0 
C -2 0.530406 -1.789267 1.03916 -1.414214 1.414214 
C -1.03916 1.789267 -0.530406 2 0 2 
z
" style="stroke: #808080; stroke-opacity: 0.3"/>
    </defs>
    <g clip-path="url(#pba8bfe476e)">
     <use xlink:href="#m95e4c505be" x="81.664668" y="427.549091" style="fill: #808080; fill-opacity: 0.3; stroke: #808080; stroke-opacity: 0.3"/>
     <use xlink:href="#m95e4c505be" x="185.956275" y="427.549091" style="fill: #808080; fill-opacity: 0.3; stroke: #808080; stroke-opacity: 0.3"/>
     <use xlink:href="#m95e4c505be" x="198.672054" y="136.930909" style="fill: #808080; fill-opacity: 0.3; stroke: #808080; stroke-opacity: 0.3"/>
     <use xlink:href="#m95e4c505be" x="155.644426" y="427.549091" style="fill: #808080; fill-opacity: 0.3; stroke: #808080; stroke-opacity: 0.3"/>
     <use xlink:href="#m95e4c505be" x="121.128431" y="427.549091" style="fill: #808080; fill-opacity: 0.3; stroke: #808080; stroke-opacity: 0.3"/>
     <use xlink:href="#m95e4c505be" x="118.006551" y="427.549091" style="fill: #808080; fill-opacity: 0.3; stroke: #808080; stroke-opacity: 0.3"/>
     <use xlink:href="#m95e4c505be" x="162.603851" y="427.549091" style="fill: #808080; fill-opacity: 0.3; stroke: #808080; stroke-opacity: 0.3"/>
     <use xlink:href="#m95e4c505be" x="278.260703" y="136.930909" style="fill: #808080; fill-opacity: 0.3; stroke: #808080; stroke-opacity: 0.3"/>
     <use xlink:href="#m95e4c505be" x="120.972896" y="427.549091" style="fill: #808080; fill-opacity: 0.3; stroke: #808080; stroke-opacity: 0.3"/>
     <use xlink:href="#m95e4c505be" x="230.264518" y="136.930909" style="fill: #808080; fill-opacity: 0.3; stroke: #808080; stroke-opacity: 0.3"/>
     <use xlink:href="#m95e4c505be" x="238.17414" y="427.549091" style="fill: #808080; fill-opacity: 0.3; stroke: #808080; stroke-opacity: 0.3"/>
     <use xlink:href="#m95e4c505be" x="131.763793" y="427.549091" style="fill: #808080; fill-opacity: 0.3; stroke: #808080; stroke-opacity: 0.3"/>
     <use xlink:href="#m95e4c505be" x="121.128431" y="427.549091" style="fill: #808080; fill-opacity: 0.3; stroke: #808080; stroke-opacity: 0.3"/>
     <use xlink:href="#m95e4c505be" x="132.679568" y="427.549091" style="fill: #808080; fill-opacity: 0.3; stroke: #808080; stroke-opacity: 0.3"/>
     <use xlink:href="#m95e4c505be" x="99.502893" y="427.549091" style="fill: #808080; fill-opacity: 0.3; stroke: #808080; stroke-opacity: 0.3"/>
     <use xlink:href="#m95e4c505be" x="108.97784" y="427.549091" style="fill: #808080; fill-opacity: 0.3; stroke: #808080; stroke-opacity: 0.3"/>
     <use xlink:href="#m95e4c505be" x="99.80517" y="427.549091" style="fill: #808080; fill-opacity: 0.3; stroke: #808080; stroke-opacity: 0.3"/>
     <use xlink:href="#m95e4c505be" x="57.824858" y="427.549091" style="fill: #808080; fill-opacity: 0.3; stroke: #808080; stroke-opacity: 0.3"/>
     <use xlink:href="#m95e4c505be" x="201.705255" y="136.930909" style="fill: #808080; fill-opacity: 0.3; stroke: #808080; stroke-opacity: 0.3"/>
     <use xlink:href="#m95e4c505be" x="144.653279" y="427.549091" style="fill: #808080; fill-opacity: 0.3; stroke: #808080; stroke-opacity: 0.3"/>
     <use xlink:href="#m95e4c505be" x="293.710616" y="136.930909" style="fill: #808080; fill-opacity: 0.3; stroke: #808080; stroke-opacity: 0.3"/>
     <use xlink:href="#m95e4c505be" x="121.128431" y="427.549091" style="fill: #808080; fill-opacity: 0.3; stroke: #808080; stroke-opacity: 0.3"/>
     <use xlink:href="#m95e4c505be" x="149.537193" y="427.549091" style="fill: #808080; fill-opacity: 0.3; stroke: #808080; stroke-opacity: 0.3"/>
     <use xlink:href="#m95e4c505be" x="173.593327" y="427.549091" style="fill: #808080; fill-opacity: 0.3; stroke: #808080; stroke-opacity: 0.3"/>
     <use xlink:href="#m95e4c505be" x="127.705155" y="427.549091" style="fill: #808080; fill-opacity: 0.3; stroke: #808080; stroke-opacity: 0.3"/>
     <use xlink:href="#m95e4c505be" x="143.490531" y="427.549091" style="fill: #808080; fill-opacity: 0.3; stroke: #808080; stroke-opacity: 0.3"/>
     <use xlink:href="#m95e4c505be" x="147.726949" y="427.549091" style="fill: #808080; fill-opacity: 0.3; stroke: #808080; stroke-opacity: 0.3"/>
     <use xlink:href="#m95e4c505be" x="122.072209" y="427.549091" style="fill: #808080; fill-opacity: 0.3; stroke: #808080; stroke-opacity: 0.3"/>
     <use xlink:href="#m95e4c505be" x="91.370782" y="427.549091" style="fill: #808080; fill-opacity: 0.3; stroke: #808080; stroke-opacity: 0.3"/>
     <use xlink:href="#m95e4c505be" x="163.216542" y="136.930909" style="fill: #808080; fill-opacity: 0.3; stroke: #808080; stroke-opacity: 0.3"/>
     <use xlink:href="#m95e4c505be" x="103.732393" y="427.549091" style="fill: #808080; fill-opacity: 0.3; stroke: #808080; stroke-opacity: 0.3"/>
     <use xlink:href="#m95e4c505be" x="155.830716" y="427.549091" style="fill: #808080; fill-opacity: 0.3; stroke: #808080; stroke-opacity: 0.3"/>
     <use xlink:href="#m95e4c505be" x="327.899136" y="136.930909" style="fill: #808080; fill-opacity: 0.3; stroke: #808080; stroke-opacity: 0.3"/>
     <use xlink:href="#m95e4c505be" x="112.19996" y="427.549091" style="fill: #808080; fill-opacity: 0.3; stroke: #808080; stroke-opacity: 0.3"/>
     <use xlink:href="#m95e4c505be" x="113.700083" y="427.549091" style="fill: #808080; fill-opacity: 0.3; stroke: #808080; stroke-opacity: 0.3"/>
     <use xlink:href="#m95e4c505be" x="257.938127" y="136.930909" style="fill: #808080; fill-opacity: 0.3; stroke: #808080; stroke-opacity: 0.3"/>
     <use xlink:href="#m95e4c505be" x="80.287907" y="427.549091" style="fill: #808080; fill-opacity: 0.3; stroke: #808080; stroke-opacity: 0.3"/>
     <use xlink:href="#m95e4c505be" x="148.146703" y="136.930909" style="fill: #808080; fill-opacity: 0.3; stroke: #808080; stroke-opacity: 0.3"/>
     <use xlink:href="#m95e4c505be" x="114.623183" y="427.549091" style="fill: #808080; fill-opacity: 0.3; stroke: #808080; stroke-opacity: 0.3"/>
     <use xlink:href="#m95e4c505be" x="320.081762" y="136.930909" style="fill: #808080; fill-opacity: 0.3; stroke: #808080; stroke-opacity: 0.3"/>
     <use xlink:href="#m95e4c505be" x="89.51411" y="427.549091" style="fill: #808080; fill-opacity: 0.3; stroke: #808080; stroke-opacity: 0.3"/>
     <use xlink:href="#m95e4c505be" x="358.915767" y="136.930909" style="fill: #808080; fill-opacity: 0.3; stroke: #808080; stroke-opacity: 0.3"/>
     <use xlink:href="#m95e4c505be" x="223.481915" y="136.930909" style="fill: #808080; fill-opacity: 0.3; stroke: #808080; stroke-opacity: 0.3"/>
     <use xlink:href="#m95e4c505be" x="234.121709" y="136.930909" style="fill: #808080; fill-opacity: 0.3; stroke: #808080; stroke-opacity: 0.3"/>
     <use xlink:href="#m95e4c505be" x="129.958119" y="427.549091" style="fill: #808080; fill-opacity: 0.3; stroke: #808080; stroke-opacity: 0.3"/>
     <use xlink:href="#m95e4c505be" x="79.54669" y="427.549091" style="fill: #808080; fill-opacity: 0.3; stroke: #808080; stroke-opacity: 0.3"/>
     <use xlink:href="#m95e4c505be" x="159.703864" y="136.930909" style="fill: #808080; fill-opacity: 0.3; stroke: #808080; stroke-opacity: 0.3"/>
     <use xlink:href="#m95e4c505be" x="276.421117" y="136.930909" style="fill: #808080; fill-opacity: 0.3; stroke: #808080; stroke-opacity: 0.3"/>
     <use xlink:href="#m95e4c505be" x="91.677839" y="427.549091" style="fill: #808080; fill-opacity: 0.3; stroke: #808080; stroke-opacity: 0.3"/>
     <use xlink:href="#m95e4c505be" x="81.249987" y="427.549091" style="fill: #808080; fill-opacity: 0.3; stroke: #808080; stroke-opacity: 0.3"/>
     <use xlink:href="#m95e4c505be" x="86.417603" y="427.549091" style="fill: #808080; fill-opacity: 0.3; stroke: #808080; stroke-opacity: 0.3"/>
     <use xlink:href="#m95e4c505be" x="67.090563" y="427.549091" style="fill: #808080; fill-opacity: 0.3; stroke: #808080; stroke-opacity: 0.3"/>
     <use xlink:href="#m95e4c505be" x="121.128431" y="427.549091" style="fill: #808080; fill-opacity: 0.3; stroke: #808080; stroke-opacity: 0.3"/>
     <use xlink:href="#m95e4c505be" x="249.14126" y="136.930909" style="fill: #808080; fill-opacity: 0.3; stroke: #808080; stroke-opacity: 0.3"/>
     <use xlink:href="#m95e4c505be" x="182.592668" y="427.549091" style="fill: #808080; fill-opacity: 0.3; stroke: #808080; stroke-opacity: 0.3"/>
     <use xlink:href="#m95e4c505be" x="144.205029" y="427.549091" style="fill: #808080; fill-opacity: 0.3; stroke: #808080; stroke-opacity: 0.3"/>
     <use xlink:href="#m95e4c505be" x="88.458958" y="427.549091" style="fill: #808080; fill-opacity: 0.3; stroke: #808080; stroke-opacity: 0.3"/>
     <use xlink:href="#m95e4c505be" x="105.728448" y="136.930909" style="fill: #808080; fill-opacity: 0.3; stroke: #808080; stroke-opacity: 0.3"/>
     <use xlink:href="#m95e4c505be" x="113.43186" y="427.549091" style="fill: #808080; fill-opacity: 0.3; stroke: #808080; stroke-opacity: 0.3"/>
     <use xlink:href="#m95e4c505be" x="162.690738" y="136.930909" style="fill: #808080; fill-opacity: 0.3; stroke: #808080; stroke-opacity: 0.3"/>
     <use xlink:href="#m95e4c505be" x="224.316931" y="136.930909" style="fill: #808080; fill-opacity: 0.3; stroke: #808080; stroke-opacity: 0.3"/>
     <use xlink:href="#m95e4c505be" x="129.409981" y="427.549091" style="fill: #808080; fill-opacity: 0.3; stroke: #808080; stroke-opacity: 0.3"/>
     <use xlink:href="#m95e4c505be" x="199.427068" y="136.930909" style="fill: #808080; fill-opacity: 0.3; stroke: #808080; stroke-opacity: 0.3"/>
     <use xlink:href="#m95e4c505be" x="341.688586" y="136.930909" style="fill: #808080; fill-opacity: 0.3; stroke: #808080; stroke-opacity: 0.3"/>
     <use xlink:href="#m95e4c505be" x="242.064217" y="136.930909" style="fill: #808080; fill-opacity: 0.3; stroke: #808080; stroke-opacity: 0.3"/>
     <use xlink:href="#m95e4c505be" x="82.44829" y="427.549091" style="fill: #808080; fill-opacity: 0.3; stroke: #808080; stroke-opacity: 0.3"/>
     <use xlink:href="#m95e4c505be" x="312.813226" y="136.930909" style="fill: #808080; fill-opacity: 0.3; stroke: #808080; stroke-opacity: 0.3"/>
     <use xlink:href="#m95e4c505be" x="87.843208" y="427.549091" style="fill: #808080; fill-opacity: 0.3; stroke: #808080; stroke-opacity: 0.3"/>
     <use xlink:href="#m95e4c505be" x="189.125816" y="136.930909" style="fill: #808080; fill-opacity: 0.3; stroke: #808080; stroke-opacity: 0.3"/>
     <use xlink:href="#m95e4c505be" x="83.66623" y="427.549091" style="fill: #808080; fill-opacity: 0.3; stroke: #808080; stroke-opacity: 0.3"/>
     <use xlink:href="#m95e4c505be" x="140.519039" y="427.549091" style="fill: #808080; fill-opacity: 0.3; stroke: #808080; stroke-opacity: 0.3"/>
     <use xlink:href="#m95e4c505be" x="253.735757" y="136.930909" style="fill: #808080; fill-opacity: 0.3; stroke: #808080; stroke-opacity: 0.3"/>
     <use xlink:href="#m95e4c505be" x="122.664078" y="427.549091" style="fill: #808080; fill-opacity: 0.3; stroke: #808080; stroke-opacity: 0.3"/>
     <use xlink:href="#m95e4c505be" x="98.655569" y="427.549091" style="fill: #808080; fill-opacity: 0.3; stroke: #808080; stroke-opacity: 0.3"/>
     <use xlink:href="#m95e4c505be" x="159.216713" y="136.930909" style="fill: #808080; fill-opacity: 0.3; stroke: #808080; stroke-opacity: 0.3"/>
     <use xlink:href="#m95e4c505be" x="164.703287" y="136.930909" style="fill: #808080; fill-opacity: 0.3; stroke: #808080; stroke-opacity: 0.3"/>
     <use xlink:href="#m95e4c505be" x="126.620401" y="136.930909" style="fill: #808080; fill-opacity: 0.3; stroke: #808080; stroke-opacity: 0.3"/>
     <use xlink:href="#m95e4c505be" x="113.008405" y="427.549091" style="fill: #808080; fill-opacity: 0.3; stroke: #808080; stroke-opacity: 0.3"/>
     <use xlink:href="#m95e4c505be" x="101.37146" y="427.549091" style="fill: #808080; fill-opacity: 0.3; stroke: #808080; stroke-opacity: 0.3"/>
     <use xlink:href="#m95e4c505be" x="278.643982" y="136.930909" style="fill: #808080; fill-opacity: 0.3; stroke: #808080; stroke-opacity: 0.3"/>
     <use xlink:href="#m95e4c505be" x="346.559737" y="136.930909" style="fill: #808080; fill-opacity: 0.3; stroke: #808080; stroke-opacity: 0.3"/>
     <use xlink:href="#m95e4c505be" x="99.002238" y="427.549091" style="fill: #808080; fill-opacity: 0.3; stroke: #808080; stroke-opacity: 0.3"/>
     <use xlink:href="#m95e4c505be" x="141.789677" y="427.549091" style="fill: #808080; fill-opacity: 0.3; stroke: #808080; stroke-opacity: 0.3"/>
     <use xlink:href="#m95e4c505be" x="113.445708" y="427.549091" style="fill: #808080; fill-opacity: 0.3; stroke: #808080; stroke-opacity: 0.3"/>
     <use xlink:href="#m95e4c505be" x="144.454405" y="427.549091" style="fill: #808080; fill-opacity: 0.3; stroke: #808080; stroke-opacity: 0.3"/>
     <use xlink:href="#m95e4c505be" x="245.20753" y="136.930909" style="fill: #808080; fill-opacity: 0.3; stroke: #808080; stroke-opacity: 0.3"/>
     <use xlink:href="#m95e4c505be" x="99.457485" y="427.549091" style="fill: #808080; fill-opacity: 0.3; stroke: #808080; stroke-opacity: 0.3"/>
     <use xlink:href="#m95e4c505be" x="89.35732" y="427.549091" style="fill: #808080; fill-opacity: 0.3; stroke: #808080; stroke-opacity: 0.3"/>
     <use xlink:href="#m95e4c505be" x="261.803128" y="136.930909" style="fill: #808080; fill-opacity: 0.3; stroke: #808080; stroke-opacity: 0.3"/>
     <use xlink:href="#m95e4c505be" x="113.098046" y="427.549091" style="fill: #808080; fill-opacity: 0.3; stroke: #808080; stroke-opacity: 0.3"/>
     <use xlink:href="#m95e4c505be" x="231.007738" y="136.930909" style="fill: #808080; fill-opacity: 0.3; stroke: #808080; stroke-opacity: 0.3"/>
     <use xlink:href="#m95e4c505be" x="76.443231" y="427.549091" style="fill: #808080; fill-opacity: 0.3; stroke: #808080; stroke-opacity: 0.3"/>
     <use xlink:href="#m95e4c505be" x="118.379177" y="427.549091" style="fill: #808080; fill-opacity: 0.3; stroke: #808080; stroke-opacity: 0.3"/>
     <use xlink:href="#m95e4c505be" x="139.720644" y="427.549091" style="fill: #808080; fill-opacity: 0.3; stroke: #808080; stroke-opacity: 0.3"/>
     <use xlink:href="#m95e4c505be" x="114.767051" y="427.549091" style="fill: #808080; fill-opacity: 0.3; stroke: #808080; stroke-opacity: 0.3"/>
     <use xlink:href="#m95e4c505be" x="105.441429" y="427.549091" style="fill: #808080; fill-opacity: 0.3; stroke: #808080; stroke-opacity: 0.3"/>
     <use xlink:href="#m95e4c505be" x="146.460814" y="427.549091" style="fill: #808080; fill-opacity: 0.3; stroke: #808080; stroke-opacity: 0.3"/>
     <use xlink:href="#m95e4c505be" x="116.031302" y="427.549091" style="fill: #808080; fill-opacity: 0.3; stroke: #808080; stroke-opacity: 0.3"/>
     <use xlink:href="#m95e4c505be" x="230.920524" y="136.930909" style="fill: #808080; fill-opacity: 0.3; stroke: #808080; stroke-opacity: 0.3"/>
     <use xlink:href="#m95e4c505be" x="102.613726" y="427.549091" style="fill: #808080; fill-opacity: 0.3; stroke: #808080; stroke-opacity: 0.3"/>
     <use xlink:href="#m95e4c505be" x="139.276186" y="136.930909" style="fill: #808080; fill-opacity: 0.3; stroke: #808080; stroke-opacity: 0.3"/>
     <use xlink:href="#m95e4c505be" x="80.051904" y="427.549091" style="fill: #808080; fill-opacity: 0.3; stroke: #808080; stroke-opacity: 0.3"/>
     <use xlink:href="#m95e4c505be" x="249.714587" y="136.930909" style="fill: #808080; fill-opacity: 0.3; stroke: #808080; stroke-opacity: 0.3"/>
     <use xlink:href="#m95e4c505be" x="159.404414" y="136.930909" style="fill: #808080; fill-opacity: 0.3; stroke: #808080; stroke-opacity: 0.3"/>
     <use xlink:href="#m95e4c505be" x="91.88455" y="427.549091" style="fill: #808080; fill-opacity: 0.3; stroke: #808080; stroke-opacity: 0.3"/>
     <use xlink:href="#m95e4c505be" x="86.060275" y="427.549091" style="fill: #808080; fill-opacity: 0.3; stroke: #808080; stroke-opacity: 0.3"/>
     <use xlink:href="#m95e4c505be" x="142.350613" y="136.930909" style="fill: #808080; fill-opacity: 0.3; stroke: #808080; stroke-opacity: 0.3"/>
     <use xlink:href="#m95e4c505be" x="177.865205" y="427.549091" style="fill: #808080; fill-opacity: 0.3; stroke: #808080; stroke-opacity: 0.3"/>
     <use xlink:href="#m95e4c505be" x="196.945459" y="136.930909" style="fill: #808080; fill-opacity: 0.3; stroke: #808080; stroke-opacity: 0.3"/>
    </g>
   </g>
   <g id="line2d_26">
    <path d="M 57.824858 427.549089 
L 60.86618 427.549088 
L 63.907503 427.549086 
L 66.948825 427.549083 
L 69.990147 427.549078 
L 73.03147 427.54907 
L 76.072792 427.549058 
L 79.114114 427.54904 
L 82.155436 427.549011 
L 85.196759 427.548965 
L 88.238081 427.548893 
L 91.279403 427.548779 
L 94.320726 427.5486 
L 97.362048 427.548319 
L 100.40337 427.547878 
L 103.444693 427.547183 
L 106.486015 427.54609 
L 109.527337 427.544372 
L 112.56866 427.54167 
L 115.609982 427.537421 
L 118.651304 427.53074 
L 121.692627 427.520233 
L 124.733949 427.503711 
L 127.775271 427.477732 
L 130.816593 427.436886 
L 133.857916 427.372675 
L 136.899238 427.271753 
L 139.94056 427.113184 
L 142.981883 426.864166 
L 146.023205 426.47342 
L 149.064527 425.861054 
L 152.10585 424.90326 
L 155.147172 423.409799 
L 158.188494 421.092242 
L 161.229817 417.522519 
L 164.271139 412.086634 
L 167.312461 403.95154 
L 170.353784 392.088012 
L 173.395106 375.424452 
L 176.436428 353.211798 
L 179.477751 325.580468 
L 182.519073 294.019493 
L 185.560395 261.298647 
L 188.601717 230.611758 
L 191.64304 204.422771 
L 194.684362 183.812213 
L 197.725684 168.602279 
L 200.767007 157.902396 
L 203.808329 150.626187 
L 206.849651 145.791554 
L 209.890974 142.628503 
L 212.932296 140.579966 
L 215.973618 139.261943 
L 219.014941 138.417518 
L 222.056263 137.877984 
L 225.097585 137.533854 
L 228.138908 137.314602 
L 231.18023 137.175011 
L 234.221552 137.086177 
L 237.262874 137.029661 
L 240.304197 136.993711 
L 243.345519 136.970847 
L 246.386841 136.956306 
L 249.428164 136.947059 
L 252.469486 136.941179 
L 255.510808 136.93744 
L 258.552131 136.935062 
L 261.593453 136.93355 
L 264.634775 136.932588 
L 267.676098 136.931977 
L 270.71742 136.931588 
L 273.758742 136.931341 
L 276.800065 136.931184 
L 279.841387 136.931084 
L 282.882709 136.93102 
L 285.924032 136.93098 
L 288.965354 136.930954 
L 292.006676 136.930938 
L 295.047998 136.930927 
L 298.089321 136.930921 
L 301.130643 136.930916 
L 304.171965 136.930914 
L 307.213288 136.930912 
L 310.25461 136.930911 
L 313.295932 136.93091 
L 316.337255 136.93091 
L 319.378577 136.93091 
L 322.419899 136.930909 
L 325.461222 136.930909 
L 328.502544 136.930909 
L 331.543866 136.930909 
L 334.585189 136.930909 
L 337.626511 136.930909 
L 340.667833 136.930909 
L 343.709155 136.930909 
L 346.750478 136.930909 
L 349.7918 136.930909 
L 352.833122 136.930909 
L 355.874445 136.930909 
L 358.915767 136.930909 
" clip-path="url(#pba8bfe476e)" style="fill: none; stroke: #4646e6; stroke-width: 1.5; stroke-linecap: square"/>
   </g>
   <g id="line2d_27">
    <path d="M 57.824858 427.549081 
L 60.86618 427.549075 
L 63.907503 427.549065 
L 66.948825 427.54905 
L 69.990147 427.549027 
L 73.03147 427.548991 
L 76.072792 427.548934 
L 79.114114 427.548843 
L 82.155436 427.548702 
L 85.196759 427.548479 
L 88.238081 427.548128 
L 91.279403 427.547577 
L 94.320726 427.546711 
L 97.362048 427.545348 
L 100.40337 427.543204 
L 103.444693 427.539833 
L 106.486015 427.534533 
L 109.527337 427.526197 
L 112.56866 427.51309 
L 115.609982 427.492479 
L 118.651304 427.460072 
L 121.692627 427.409123 
L 124.733949 427.329036 
L 127.775271 427.20318 
L 130.816593 427.005477 
L 133.857916 426.69511 
L 136.899238 426.208365 
L 139.94056 425.446202 
L 142.981883 424.255703 
L 146.023205 422.403255 
L 149.064527 419.537902 
L 152.10585 415.146356 
L 155.147172 408.509651 
L 158.188494 398.690019 
L 161.229817 384.606696 
L 164.271139 365.285449 
L 167.312461 340.332181 
L 170.353784 310.50426 
L 173.395106 277.976693 
L 176.436428 245.871206 
L 179.477751 217.154073 
L 182.519073 193.643845 
L 185.560395 175.752231 
L 188.601717 162.878854 
L 191.64304 153.985229 
L 194.684362 148.012257 
L 197.725684 144.076569 
L 200.767007 141.515767 
L 203.808329 139.86319 
L 206.849651 138.802375 
L 209.890974 138.123741 
L 212.932296 137.690547 
L 215.973618 137.414411 
L 219.014941 137.238546 
L 222.056263 137.126606 
L 225.097585 137.05538 
L 228.138908 137.010071 
L 231.18023 136.981252 
L 234.221552 136.962923 
L 237.262874 136.951267 
L 240.304197 136.943855 
L 243.345519 136.939141 
L 246.386841 136.936144 
L 249.428164 136.934238 
L 252.469486 136.933026 
L 255.510808 136.932255 
L 258.552131 136.931765 
L 261.593453 136.931453 
L 264.634775 136.931255 
L 267.676098 136.931129 
L 270.71742 136.931049 
L 273.758742 136.930998 
L 276.800065 136.930966 
L 279.841387 136.930945 
L 282.882709 136.930932 
L 285.924032 136.930924 
L 288.965354 136.930918 
L 292.006676 136.930915 
L 295.047998 136.930913 
L 298.089321 136.930911 
L 301.130643 136.930911 
L 304.171965 136.93091 
L 307.213288 136.93091 
L 310.25461 136.930909 
L 313.295932 136.930909 
L 316.337255 136.930909 
L 319.378577 136.930909 
L 322.419899 136.930909 
L 325.461222 136.930909 
L 328.502544 136.930909 
L 331.543866 136.930909 
L 334.585189 136.930909 
L 337.626511 136.930909 
L 340.667833 136.930909 
L 343.709155 136.930909 
L 346.750478 136.930909 
L 349.7918 136.930909 
L 352.833122 136.930909 
L 355.874445 136.930909 
L 358.915767 136.930909 
" clip-path="url(#pba8bfe476e)" style="fill: none; stroke: #ff1ec8; stroke-width: 1.5; stroke-linecap: square"/>
   </g>
   <g id="line2d_28">
    <path d="M 57.824858 427.549052 
L 60.86618 427.54903 
L 63.907503 427.548995 
L 66.948825 427.54894 
L 69.990147 427.548854 
L 73.03147 427.548718 
L 76.072792 427.548504 
L 79.114114 427.548168 
L 82.155436 427.54764 
L 85.196759 427.546809 
L 88.238081 427.545502 
L 91.279403 427.543447 
L 94.320726 427.540215 
L 97.362048 427.535132 
L 100.40337 427.52714 
L 103.444693 427.514572 
L 106.486015 427.49481 
L 109.527337 427.463737 
L 112.56866 427.414884 
L 115.609982 427.338091 
L 118.651304 427.217408 
L 121.692627 427.027822 
L 124.733949 426.730177 
L 127.775271 426.26333 
L 130.816593 425.532195 
L 133.857916 424.389847 
L 136.899238 422.611554 
L 139.94056 419.859064 
L 142.981883 415.63615 
L 146.023205 409.244291 
L 149.064527 399.764788 
L 152.10585 386.122949 
L 155.147172 367.318011 
L 158.188494 342.877288 
L 161.229817 313.431441 
L 164.271139 281.030671 
L 167.312461 248.749719 
L 170.353784 219.619149 
L 173.395106 195.587912 
L 176.436428 177.188547 
L 179.477751 163.889873 
L 182.519073 154.672953 
L 185.560395 148.469276 
L 188.601717 144.375595 
L 191.64304 141.709436 
L 194.684362 139.987799 
L 197.725684 138.88221 
L 200.767007 138.174751 
L 203.808329 137.723083 
L 206.849651 137.43514 
L 209.890974 137.251744 
L 212.932296 137.135005 
L 215.973618 137.060724 
L 219.014941 137.013469 
L 222.056263 136.983413 
L 225.097585 136.964298 
L 228.138908 136.952141 
L 231.18023 136.944411 
L 234.221552 136.939495 
L 237.262874 136.936369 
L 240.304197 136.934381 
L 243.345519 136.933117 
L 246.386841 136.932313 
L 249.428164 136.931802 
L 252.469486 136.931477 
L 255.510808 136.93127 
L 258.552131 136.931139 
L 261.593453 136.931055 
L 264.634775 136.931002 
L 267.676098 136.930968 
L 270.71742 136.930947 
L 273.758742 136.930933 
L 276.800065 136.930924 
L 279.841387 136.930919 
L 282.882709 136.930915 
L 285.924032 136.930913 
L 288.965354 136.930912 
L 292.006676 136.930911 
L 295.047998 136.93091 
L 298.089321 136.93091 
L 301.130643 136.930909 
L 304.171965 136.930909 
L 307.213288 136.930909 
L 310.25461 136.930909 
L 313.295932 136.930909 
L 316.337255 136.930909 
L 319.378577 136.930909 
L 322.419899 136.930909 
L 325.461222 136.930909 
L 328.502544 136.930909 
L 331.543866 136.930909 
L 334.585189 136.930909 
L 337.626511 136.930909 
L 340.667833 136.930909 
L 343.709155 136.930909 
L 346.750478 136.930909 
L 349.7918 136.930909 
L 352.833122 136.930909 
L 355.874445 136.930909 
L 358.915767 136.930909 
" clip-path="url(#pba8bfe476e)" style="fill: none; stroke: #00c8c8; stroke-width: 1.5; stroke-linecap: square"/>
   </g>
   <g id="patch_3">
    <path d="M 42.770313 442.08 
L 42.770313 122.4 
" style="fill: none; stroke: #1e1e1e; stroke-linejoin: miter; stroke-linecap: square"/>
   </g>
   <g id="patch_4">
    <path d="M 373.970313 442.08 
L 373.970313 122.4 
" style="fill: none; stroke: #1e1e1e; stroke-linejoin: miter; stroke-linecap: square"/>
   </g>
   <g id="patch_5">
    <path d="M 42.770313 442.08 
L 373.970313 442.08 
" style="fill: none; stroke: #1e1e1e; stroke-linejoin: miter; stroke-linecap: square"/>
   </g>
   <g id="patch_6">
    <path d="M 42.770313 122.4 
L 373.970313 122.4 
" style="fill: none; stroke: #1e1e1e; stroke-linejoin: miter; stroke-linecap: square"/>
   </g>
   <g id="legend_1">
    <g id="patch_7">
     <path d="M 496.890313 313.341563 
L 723.641875 313.341563 
Q 725.641875 313.341563 725.641875 311.341563 
L 725.641875 253.138438 
Q 725.641875 251.138438 723.641875 251.138438 
L 496.890313 251.138438 
Q 494.890313 251.138438 494.890313 253.138438 
L 494.890313 311.341563 
Q 494.890313 313.341563 496.890313 313.341563 
z
" style="fill: #fafafa; opacity: 0.8; stroke: #cccccc; stroke-linejoin: miter"/>
    </g>
    <g id="text_15">
     <!--      _age at CSF collection  LILRA2   -->
     <g style="fill: #1e1e1e" transform="translate(498.890313 262.79)scale(0.1 -0.1)">
      <defs>
       <path id="DejaVuSansMono-43" d="M 3353 166 
Q 3113 38 2859 -26 
Q 2606 -91 2322 -91 
Q 1425 -91 929 543 
Q 434 1178 434 2328 
Q 434 3472 932 4111 
Q 1431 4750 2322 4750 
Q 2606 4750 2859 4686 
Q 3113 4622 3353 4494 
L 3353 3847 
Q 3122 4038 2856 4138 
Q 2591 4238 2322 4238 
Q 1706 4238 1400 3763 
Q 1094 3288 1094 2328 
Q 1094 1372 1400 897 
Q 1706 422 2322 422 
Q 2597 422 2861 522 
Q 3125 622 3353 813 
L 3353 166 
z
" transform="scale(0.015625)"/>
       <path id="DejaVuSansMono-53" d="M 3163 4506 
L 3163 3866 
Q 2875 4050 2586 4144 
Q 2297 4238 2003 4238 
Q 1556 4238 1297 4030 
Q 1038 3822 1038 3469 
Q 1038 3159 1208 2996 
Q 1378 2834 1844 2725 
L 2175 2650 
Q 2831 2497 3131 2169 
Q 3431 1841 3431 1275 
Q 3431 609 3018 259 
Q 2606 -91 1819 -91 
Q 1491 -91 1159 -20 
Q 828 50 494 191 
L 494 863 
Q 853 634 1173 528 
Q 1494 422 1819 422 
Q 2297 422 2562 636 
Q 2828 850 2828 1234 
Q 2828 1584 2645 1768 
Q 2463 1953 2009 2053 
L 1672 2131 
Q 1022 2278 728 2575 
Q 434 2872 434 3372 
Q 434 3997 854 4373 
Q 1275 4750 1972 4750 
Q 2241 4750 2537 4689 
Q 2834 4628 3163 4506 
z
" transform="scale(0.015625)"/>
       <path id="DejaVuSansMono-46" d="M 728 4666 
L 3475 4666 
L 3475 4134 
L 1363 4134 
L 1363 2759 
L 3278 2759 
L 3278 2228 
L 1363 2228 
L 1363 0 
L 728 0 
L 728 4666 
z
" transform="scale(0.015625)"/>
       <path id="DejaVuSansMono-4c" d="M 672 4666 
L 1306 4666 
L 1306 531 
L 3559 531 
L 3559 0 
L 672 0 
L 672 4666 
z
" transform="scale(0.015625)"/>
       <path id="DejaVuSansMono-49" d="M 628 4666 
L 3219 4666 
L 3219 4134 
L 2241 4134 
L 2241 531 
L 3219 531 
L 3219 0 
L 628 0 
L 628 531 
L 1606 531 
L 1606 4134 
L 628 4134 
L 628 4666 
z
" transform="scale(0.015625)"/>
       <path id="DejaVuSansMono-52" d="M 2375 2203 
Q 2619 2141 2791 1967 
Q 2963 1794 3219 1275 
L 3853 0 
L 3175 0 
L 2619 1178 
Q 2378 1681 2186 1826 
Q 1994 1972 1684 1972 
L 1081 1972 
L 1081 0 
L 447 0 
L 447 4666 
L 1747 4666 
Q 2516 4666 2925 4319 
Q 3334 3972 3334 3316 
Q 3334 2853 3082 2561 
Q 2831 2269 2375 2203 
z
M 1081 4147 
L 1081 2491 
L 1772 2491 
Q 2225 2491 2447 2694 
Q 2669 2897 2669 3316 
Q 2669 3719 2433 3933 
Q 2197 4147 1747 4147 
L 1081 4147 
z
" transform="scale(0.015625)"/>
      </defs>
      <use xlink:href="#DejaVuSansMono-20"/>
      <use xlink:href="#DejaVuSansMono-20" x="60.205078"/>
      <use xlink:href="#DejaVuSansMono-20" x="120.410156"/>
      <use xlink:href="#DejaVuSansMono-20" x="180.615234"/>
      <use xlink:href="#DejaVuSansMono-20" x="240.820312"/>
      <use xlink:href="#DejaVuSansMono-5f" x="301.025391"/>
      <use xlink:href="#DejaVuSansMono-61" x="361.230469"/>
      <use xlink:href="#DejaVuSansMono-67" x="421.435547"/>
      <use xlink:href="#DejaVuSansMono-65" x="481.640625"/>
      <use xlink:href="#DejaVuSansMono-20" x="541.845703"/>
      <use xlink:href="#DejaVuSansMono-61" x="602.050781"/>
      <use xlink:href="#DejaVuSansMono-74" x="662.255859"/>
      <use xlink:href="#DejaVuSansMono-20" x="722.460938"/>
      <use xlink:href="#DejaVuSansMono-43" x="782.666016"/>
      <use xlink:href="#DejaVuSansMono-53" x="842.871094"/>
      <use xlink:href="#DejaVuSansMono-46" x="903.076172"/>
      <use xlink:href="#DejaVuSansMono-20" x="963.28125"/>
      <use xlink:href="#DejaVuSansMono-63" x="1023.486328"/>
      <use xlink:href="#DejaVuSansMono-6f" x="1083.691406"/>
      <use xlink:href="#DejaVuSansMono-6c" x="1143.896484"/>
      <use xlink:href="#DejaVuSansMono-6c" x="1204.101562"/>
      <use xlink:href="#DejaVuSansMono-65" x="1264.306641"/>
      <use xlink:href="#DejaVuSansMono-63" x="1324.511719"/>
      <use xlink:href="#DejaVuSansMono-74" x="1384.716797"/>
      <use xlink:href="#DejaVuSansMono-69" x="1444.921875"/>
      <use xlink:href="#DejaVuSansMono-6f" x="1505.126953"/>
      <use xlink:href="#DejaVuSansMono-6e" x="1565.332031"/>
      <use xlink:href="#DejaVuSansMono-20" x="1625.537109"/>
      <use xlink:href="#DejaVuSansMono-20" x="1685.742188"/>
      <use xlink:href="#DejaVuSansMono-4c" x="1745.947266"/>
      <use xlink:href="#DejaVuSansMono-49" x="1806.152344"/>
      <use xlink:href="#DejaVuSansMono-4c" x="1866.357422"/>
      <use xlink:href="#DejaVuSansMono-52" x="1926.5625"/>
      <use xlink:href="#DejaVuSansMono-41" x="1986.767578"/>
      <use xlink:href="#DejaVuSansMono-32" x="2046.972656"/>
      <use xlink:href="#DejaVuSansMono-20" x="2107.177734"/>
      <use xlink:href="#DejaVuSansMono-20" x="2167.382812"/>
     </g>
    </g>
    <g id="line2d_29">
     <path d="M 499.941094 274.299375 
L 509.941094 274.299375 
L 519.941094 274.299375 
" style="fill: none; stroke: #4646e6; stroke-width: 1.5; stroke-linecap: square"/>
    </g>
    <g id="text_16">
     <!-- 62.0                    1.31e+04 -->
     <g style="fill: #1e1e1e" transform="translate(527.941094 277.799375)scale(0.1 -0.1)">
      <defs>
       <path id="DejaVuSansMono-2b" d="M 2188 3659 
L 2188 2272 
L 3578 2272 
L 3578 1741 
L 2188 1741 
L 2188 353 
L 1663 353 
L 1663 1741 
L 275 1741 
L 275 2272 
L 1663 2272 
L 1663 3659 
L 2188 3659 
z
" transform="scale(0.015625)"/>
      </defs>
      <use xlink:href="#DejaVuSansMono-36"/>
      <use xlink:href="#DejaVuSansMono-32" x="60.205078"/>
      <use xlink:href="#DejaVuSansMono-2e" x="120.410156"/>
      <use xlink:href="#DejaVuSansMono-30" x="180.615234"/>
      <use xlink:href="#DejaVuSansMono-20" x="240.820312"/>
      <use xlink:href="#DejaVuSansMono-20" x="301.025391"/>
      <use xlink:href="#DejaVuSansMono-20" x="361.230469"/>
      <use xlink:href="#DejaVuSansMono-20" x="421.435547"/>
      <use xlink:href="#DejaVuSansMono-20" x="481.640625"/>
      <use xlink:href="#DejaVuSansMono-20" x="541.845703"/>
      <use xlink:href="#DejaVuSansMono-20" x="602.050781"/>
      <use xlink:href="#DejaVuSansMono-20" x="662.255859"/>
      <use xlink:href="#DejaVuSansMono-20" x="722.460938"/>
      <use xlink:href="#DejaVuSansMono-20" x="782.666016"/>
      <use xlink:href="#DejaVuSansMono-20" x="842.871094"/>
      <use xlink:href="#DejaVuSansMono-20" x="903.076172"/>
      <use xlink:href="#DejaVuSansMono-20" x="963.28125"/>
      <use xlink:href="#DejaVuSansMono-20" x="1023.486328"/>
      <use xlink:href="#DejaVuSansMono-20" x="1083.691406"/>
      <use xlink:href="#DejaVuSansMono-20" x="1143.896484"/>
      <use xlink:href="#DejaVuSansMono-20" x="1204.101562"/>
      <use xlink:href="#DejaVuSansMono-20" x="1264.306641"/>
      <use xlink:href="#DejaVuSansMono-20" x="1324.511719"/>
      <use xlink:href="#DejaVuSansMono-20" x="1384.716797"/>
      <use xlink:href="#DejaVuSansMono-31" x="1444.921875"/>
      <use xlink:href="#DejaVuSansMono-2e" x="1505.126953"/>
      <use xlink:href="#DejaVuSansMono-33" x="1565.332031"/>
      <use xlink:href="#DejaVuSansMono-31" x="1625.537109"/>
      <use xlink:href="#DejaVuSansMono-65" x="1685.742188"/>
      <use xlink:href="#DejaVuSansMono-2b" x="1745.947266"/>
      <use xlink:href="#DejaVuSansMono-30" x="1806.152344"/>
      <use xlink:href="#DejaVuSansMono-34" x="1866.357422"/>
     </g>
    </g>
    <g id="line2d_30">
     <path d="M 499.941094 289.030625 
L 509.941094 289.030625 
L 519.941094 289.030625 
" style="fill: none; stroke: #ff1ec8; stroke-width: 1.5; stroke-linecap: square"/>
    </g>
    <g id="text_17">
     <!-- 68.0                    1.31e+04 -->
     <g style="fill: #1e1e1e" transform="translate(527.941094 292.530625)scale(0.1 -0.1)">
      <use xlink:href="#DejaVuSansMono-36"/>
      <use xlink:href="#DejaVuSansMono-38" x="60.205078"/>
      <use xlink:href="#DejaVuSansMono-2e" x="120.410156"/>
      <use xlink:href="#DejaVuSansMono-30" x="180.615234"/>
      <use xlink:href="#DejaVuSansMono-20" x="240.820312"/>
      <use xlink:href="#DejaVuSansMono-20" x="301.025391"/>
      <use xlink:href="#DejaVuSansMono-20" x="361.230469"/>
      <use xlink:href="#DejaVuSansMono-20" x="421.435547"/>
      <use xlink:href="#DejaVuSansMono-20" x="481.640625"/>
      <use xlink:href="#DejaVuSansMono-20" x="541.845703"/>
      <use xlink:href="#DejaVuSansMono-20" x="602.050781"/>
      <use xlink:href="#DejaVuSansMono-20" x="662.255859"/>
      <use xlink:href="#DejaVuSansMono-20" x="722.460938"/>
      <use xlink:href="#DejaVuSansMono-20" x="782.666016"/>
      <use xlink:href="#DejaVuSansMono-20" x="842.871094"/>
      <use xlink:href="#DejaVuSansMono-20" x="903.076172"/>
      <use xlink:href="#DejaVuSansMono-20" x="963.28125"/>
      <use xlink:href="#DejaVuSansMono-20" x="1023.486328"/>
      <use xlink:href="#DejaVuSansMono-20" x="1083.691406"/>
      <use xlink:href="#DejaVuSansMono-20" x="1143.896484"/>
      <use xlink:href="#DejaVuSansMono-20" x="1204.101562"/>
      <use xlink:href="#DejaVuSansMono-20" x="1264.306641"/>
      <use xlink:href="#DejaVuSansMono-20" x="1324.511719"/>
      <use xlink:href="#DejaVuSansMono-20" x="1384.716797"/>
      <use xlink:href="#DejaVuSansMono-31" x="1444.921875"/>
      <use xlink:href="#DejaVuSansMono-2e" x="1505.126953"/>
      <use xlink:href="#DejaVuSansMono-33" x="1565.332031"/>
      <use xlink:href="#DejaVuSansMono-31" x="1625.537109"/>
      <use xlink:href="#DejaVuSansMono-65" x="1685.742188"/>
      <use xlink:href="#DejaVuSansMono-2b" x="1745.947266"/>
      <use xlink:href="#DejaVuSansMono-30" x="1806.152344"/>
      <use xlink:href="#DejaVuSansMono-34" x="1866.357422"/>
     </g>
    </g>
    <g id="line2d_31">
     <path d="M 499.941094 303.761875 
L 509.941094 303.761875 
L 519.941094 303.761875 
" style="fill: none; stroke: #00c8c8; stroke-width: 1.5; stroke-linecap: square"/>
    </g>
    <g id="text_18">
     <!-- 73.0                    1.31e+04 -->
     <g style="fill: #1e1e1e" transform="translate(527.941094 307.261875)scale(0.1 -0.1)">
      <defs>
       <path id="DejaVuSansMono-37" d="M 434 4666 
L 3372 4666 
L 3372 4397 
L 1703 0 
L 1044 0 
L 2669 4134 
L 434 4134 
L 434 4666 
z
" transform="scale(0.015625)"/>
      </defs>
      <use xlink:href="#DejaVuSansMono-37"/>
      <use xlink:href="#DejaVuSansMono-33" x="60.205078"/>
      <use xlink:href="#DejaVuSansMono-2e" x="120.410156"/>
      <use xlink:href="#DejaVuSansMono-30" x="180.615234"/>
      <use xlink:href="#DejaVuSansMono-20" x="240.820312"/>
      <use xlink:href="#DejaVuSansMono-20" x="301.025391"/>
      <use xlink:href="#DejaVuSansMono-20" x="361.230469"/>
      <use xlink:href="#DejaVuSansMono-20" x="421.435547"/>
      <use xlink:href="#DejaVuSansMono-20" x="481.640625"/>
      <use xlink:href="#DejaVuSansMono-20" x="541.845703"/>
      <use xlink:href="#DejaVuSansMono-20" x="602.050781"/>
      <use xlink:href="#DejaVuSansMono-20" x="662.255859"/>
      <use xlink:href="#DejaVuSansMono-20" x="722.460938"/>
      <use xlink:href="#DejaVuSansMono-20" x="782.666016"/>
      <use xlink:href="#DejaVuSansMono-20" x="842.871094"/>
      <use xlink:href="#DejaVuSansMono-20" x="903.076172"/>
      <use xlink:href="#DejaVuSansMono-20" x="963.28125"/>
      <use xlink:href="#DejaVuSansMono-20" x="1023.486328"/>
      <use xlink:href="#DejaVuSansMono-20" x="1083.691406"/>
      <use xlink:href="#DejaVuSansMono-20" x="1143.896484"/>
      <use xlink:href="#DejaVuSansMono-20" x="1204.101562"/>
      <use xlink:href="#DejaVuSansMono-20" x="1264.306641"/>
      <use xlink:href="#DejaVuSansMono-20" x="1324.511719"/>
      <use xlink:href="#DejaVuSansMono-20" x="1384.716797"/>
      <use xlink:href="#DejaVuSansMono-31" x="1444.921875"/>
      <use xlink:href="#DejaVuSansMono-2e" x="1505.126953"/>
      <use xlink:href="#DejaVuSansMono-33" x="1565.332031"/>
      <use xlink:href="#DejaVuSansMono-31" x="1625.537109"/>
      <use xlink:href="#DejaVuSansMono-65" x="1685.742188"/>
      <use xlink:href="#DejaVuSansMono-2b" x="1745.947266"/>
      <use xlink:href="#DejaVuSansMono-30" x="1806.152344"/>
      <use xlink:href="#DejaVuSansMono-34" x="1866.357422"/>
     </g>
    </g>
   </g>
  </g>
  <g id="axes_2">
   <g id="patch_8">
    <path d="M 42.770313 108 
L 373.970313 108 
L 373.970313 7.2 
L 42.770313 7.2 
z
" style="fill: #fafafa"/>
   </g>
   <g id="patch_9">
    <path d="M 57.824858 108 
L 66.080576 108 
L 66.080576 88.8 
L 57.824858 88.8 
z
" clip-path="url(#p2171671fb3)" style="fill: #808080; opacity: 0.6"/>
   </g>
   <g id="patch_10">
    <path d="M 67.537468 108 
L 75.793186 108 
L 75.793186 98.4 
L 67.537468 98.4 
z
" clip-path="url(#p2171671fb3)" style="fill: #808080; opacity: 0.6"/>
   </g>
   <g id="patch_11">
    <path d="M 77.250078 108 
L 85.505796 108 
L 85.505796 21.6 
L 77.250078 21.6 
z
" clip-path="url(#p2171671fb3)" style="fill: #808080; opacity: 0.6"/>
   </g>
   <g id="patch_12">
    <path d="M 86.962688 108 
L 95.218406 108 
L 95.218406 40.8 
L 86.962688 40.8 
z
" clip-path="url(#p2171671fb3)" style="fill: #808080; opacity: 0.6"/>
   </g>
   <g id="patch_13">
    <path d="M 96.675298 108 
L 104.931016 108 
L 104.931016 12 
L 96.675298 12 
z
" clip-path="url(#p2171671fb3)" style="fill: #808080; opacity: 0.6"/>
   </g>
   <g id="patch_14">
    <path d="M 106.387908 108 
L 114.643626 108 
L 114.643626 12 
L 106.387908 12 
z
" clip-path="url(#p2171671fb3)" style="fill: #808080; opacity: 0.6"/>
   </g>
   <g id="patch_15">
    <path d="M 116.100518 108 
L 124.356236 108 
L 124.356236 21.6 
L 116.100518 21.6 
z
" clip-path="url(#p2171671fb3)" style="fill: #808080; opacity: 0.6"/>
   </g>
   <g id="patch_16">
    <path d="M 125.813128 108 
L 134.068846 108 
L 134.068846 50.4 
L 125.813128 50.4 
z
" clip-path="url(#p2171671fb3)" style="fill: #808080; opacity: 0.6"/>
   </g>
   <g id="patch_17">
    <path d="M 135.525738 108 
L 143.781456 108 
L 143.781456 21.6 
L 135.525738 21.6 
z
" clip-path="url(#p2171671fb3)" style="fill: #808080; opacity: 0.6"/>
   </g>
   <g id="patch_18">
    <path d="M 145.238348 108 
L 153.494066 108 
L 153.494066 69.6 
L 145.238348 69.6 
z
" clip-path="url(#p2171671fb3)" style="fill: #808080; opacity: 0.6"/>
   </g>
   <g id="patch_19">
    <path d="M 154.950958 108 
L 163.206676 108 
L 163.206676 31.2 
L 154.950958 31.2 
z
" clip-path="url(#p2171671fb3)" style="fill: #808080; opacity: 0.6"/>
   </g>
   <g id="patch_20">
    <path d="M 164.663568 108 
L 172.919286 108 
L 172.919286 88.8 
L 164.663568 88.8 
z
" clip-path="url(#p2171671fb3)" style="fill: #808080; opacity: 0.6"/>
   </g>
   <g id="patch_21">
    <path d="M 174.376178 108 
L 182.631896 108 
L 182.631896 88.8 
L 174.376178 88.8 
z
" clip-path="url(#p2171671fb3)" style="fill: #808080; opacity: 0.6"/>
   </g>
   <g id="patch_22">
    <path d="M 184.088788 108 
L 192.344506 108 
L 192.344506 88.8 
L 184.088788 88.8 
z
" clip-path="url(#p2171671fb3)" style="fill: #808080; opacity: 0.6"/>
   </g>
   <g id="patch_23">
    <path d="M 193.801398 108 
L 202.057116 108 
L 202.057116 69.6 
L 193.801398 69.6 
z
" clip-path="url(#p2171671fb3)" style="fill: #808080; opacity: 0.6"/>
   </g>
   <g id="patch_24">
    <path d="M 203.514008 108 
L 211.769726 108 
L 211.769726 108 
L 203.514008 108 
z
" clip-path="url(#p2171671fb3)" style="fill: #808080; opacity: 0.6"/>
   </g>
   <g id="patch_25">
    <path d="M 213.226617 108 
L 221.482336 108 
L 221.482336 108 
L 213.226617 108 
z
" clip-path="url(#p2171671fb3)" style="fill: #808080; opacity: 0.6"/>
   </g>
   <g id="patch_26">
    <path d="M 222.939227 108 
L 231.194946 108 
L 231.194946 60 
L 222.939227 60 
z
" clip-path="url(#p2171671fb3)" style="fill: #808080; opacity: 0.6"/>
   </g>
   <g id="patch_27">
    <path d="M 232.651837 108 
L 240.907556 108 
L 240.907556 79.2 
L 232.651837 79.2 
z
" clip-path="url(#p2171671fb3)" style="fill: #808080; opacity: 0.6"/>
   </g>
   <g id="patch_28">
    <path d="M 242.364447 108 
L 250.620166 108 
L 250.620166 79.2 
L 242.364447 79.2 
z
" clip-path="url(#p2171671fb3)" style="fill: #808080; opacity: 0.6"/>
   </g>
   <g id="patch_29">
    <path d="M 252.077057 108 
L 260.332776 108 
L 260.332776 88.8 
L 252.077057 88.8 
z
" clip-path="url(#p2171671fb3)" style="fill: #808080; opacity: 0.6"/>
   </g>
   <g id="patch_30">
    <path d="M 261.789667 108 
L 270.045386 108 
L 270.045386 98.4 
L 261.789667 98.4 
z
" clip-path="url(#p2171671fb3)" style="fill: #808080; opacity: 0.6"/>
   </g>
   <g id="patch_31">
    <path d="M 271.502277 108 
L 279.757996 108 
L 279.757996 79.2 
L 271.502277 79.2 
z
" clip-path="url(#p2171671fb3)" style="fill: #808080; opacity: 0.6"/>
   </g>
   <g id="patch_32">
    <path d="M 281.214887 108 
L 289.470606 108 
L 289.470606 108 
L 281.214887 108 
z
" clip-path="url(#p2171671fb3)" style="fill: #808080; opacity: 0.6"/>
   </g>
   <g id="patch_33">
    <path d="M 290.927497 108 
L 299.183216 108 
L 299.183216 98.4 
L 290.927497 98.4 
z
" clip-path="url(#p2171671fb3)" style="fill: #808080; opacity: 0.6"/>
   </g>
   <g id="patch_34">
    <path d="M 300.640107 108 
L 308.895826 108 
L 308.895826 108 
L 300.640107 108 
z
" clip-path="url(#p2171671fb3)" style="fill: #808080; opacity: 0.6"/>
   </g>
   <g id="patch_35">
    <path d="M 310.352717 108 
L 318.608436 108 
L 318.608436 98.4 
L 310.352717 98.4 
z
" clip-path="url(#p2171671fb3)" style="fill: #808080; opacity: 0.6"/>
   </g>
   <g id="patch_36">
    <path d="M 320.065327 108 
L 328.321046 108 
L 328.321046 88.8 
L 320.065327 88.8 
z
" clip-path="url(#p2171671fb3)" style="fill: #808080; opacity: 0.6"/>
   </g>
   <g id="patch_37">
    <path d="M 329.777937 108 
L 338.033656 108 
L 338.033656 108 
L 329.777937 108 
z
" clip-path="url(#p2171671fb3)" style="fill: #808080; opacity: 0.6"/>
   </g>
   <g id="patch_38">
    <path d="M 339.490547 108 
L 347.746266 108 
L 347.746266 88.8 
L 339.490547 88.8 
z
" clip-path="url(#p2171671fb3)" style="fill: #808080; opacity: 0.6"/>
   </g>
   <g id="patch_39">
    <path d="M 349.203157 108 
L 357.458876 108 
L 357.458876 98.4 
L 349.203157 98.4 
z
" clip-path="url(#p2171671fb3)" style="fill: #808080; opacity: 0.6"/>
   </g>
   <g id="matplotlib.axis_3">
    <g id="xtick_7">
     <g id="line2d_32">
      <g>
       <use xlink:href="#mecfeb2e67f" x="75.334507" y="108" style="fill: #1e1e1e; stroke: #1e1e1e; stroke-width: 0.8"/>
      </g>
     </g>
    </g>
    <g id="xtick_8">
     <g id="line2d_33">
      <g>
       <use xlink:href="#mecfeb2e67f" x="133.11642" y="108" style="fill: #1e1e1e; stroke: #1e1e1e; stroke-width: 0.8"/>
      </g>
     </g>
    </g>
    <g id="xtick_9">
     <g id="line2d_34">
      <g>
       <use xlink:href="#mecfeb2e67f" x="190.898333" y="108" style="fill: #1e1e1e; stroke: #1e1e1e; stroke-width: 0.8"/>
      </g>
     </g>
    </g>
    <g id="xtick_10">
     <g id="line2d_35">
      <g>
       <use xlink:href="#mecfeb2e67f" x="248.680246" y="108" style="fill: #1e1e1e; stroke: #1e1e1e; stroke-width: 0.8"/>
      </g>
     </g>
    </g>
    <g id="xtick_11">
     <g id="line2d_36">
      <g>
       <use xlink:href="#mecfeb2e67f" x="306.462159" y="108" style="fill: #1e1e1e; stroke: #1e1e1e; stroke-width: 0.8"/>
      </g>
     </g>
    </g>
    <g id="xtick_12">
     <g id="line2d_37">
      <g>
       <use xlink:href="#mecfeb2e67f" x="364.244072" y="108" style="fill: #1e1e1e; stroke: #1e1e1e; stroke-width: 0.8"/>
      </g>
     </g>
    </g>
   </g>
   <g id="matplotlib.axis_4">
    <g id="ytick_7">
     <g id="line2d_38">
      <g>
       <use xlink:href="#md11a4ce6ab" x="42.770313" y="108" style="fill: #1e1e1e; stroke: #1e1e1e; stroke-width: 0.8"/>
      </g>
     </g>
     <g id="text_19">
      <!-- 0.0 -->
      <g style="fill: #1e1e1e" transform="translate(21.209375 111.825781)scale(0.1 -0.1)">
       <use xlink:href="#DejaVuSansMono-30"/>
       <use xlink:href="#DejaVuSansMono-2e" x="60.205078"/>
       <use xlink:href="#DejaVuSansMono-30" x="120.410156"/>
      </g>
     </g>
    </g>
    <g id="ytick_8">
     <g id="line2d_39">
      <g>
       <use xlink:href="#md11a4ce6ab" x="42.770313" y="84" style="fill: #1e1e1e; stroke: #1e1e1e; stroke-width: 0.8"/>
      </g>
     </g>
     <g id="text_20">
      <!-- 2.5 -->
      <g style="fill: #1e1e1e" transform="translate(21.209375 87.825781)scale(0.1 -0.1)">
       <use xlink:href="#DejaVuSansMono-32"/>
       <use xlink:href="#DejaVuSansMono-2e" x="60.205078"/>
       <use xlink:href="#DejaVuSansMono-35" x="120.410156"/>
      </g>
     </g>
    </g>
    <g id="ytick_9">
     <g id="line2d_40">
      <g>
       <use xlink:href="#md11a4ce6ab" x="42.770313" y="60" style="fill: #1e1e1e; stroke: #1e1e1e; stroke-width: 0.8"/>
      </g>
     </g>
     <g id="text_21">
      <!-- 5.0 -->
      <g style="fill: #1e1e1e" transform="translate(21.209375 63.825781)scale(0.1 -0.1)">
       <use xlink:href="#DejaVuSansMono-35"/>
       <use xlink:href="#DejaVuSansMono-2e" x="60.205078"/>
       <use xlink:href="#DejaVuSansMono-30" x="120.410156"/>
      </g>
     </g>
    </g>
    <g id="ytick_10">
     <g id="line2d_41">
      <g>
       <use xlink:href="#md11a4ce6ab" x="42.770313" y="36" style="fill: #1e1e1e; stroke: #1e1e1e; stroke-width: 0.8"/>
      </g>
     </g>
     <g id="text_22">
      <!-- 7.5 -->
      <g style="fill: #1e1e1e" transform="translate(21.209375 39.825781)scale(0.1 -0.1)">
       <use xlink:href="#DejaVuSansMono-37"/>
       <use xlink:href="#DejaVuSansMono-2e" x="60.205078"/>
       <use xlink:href="#DejaVuSansMono-35" x="120.410156"/>
      </g>
     </g>
    </g>
    <g id="ytick_11">
     <g id="line2d_42">
      <g>
       <use xlink:href="#md11a4ce6ab" x="42.770313" y="12" style="fill: #1e1e1e; stroke: #1e1e1e; stroke-width: 0.8"/>
      </g>
     </g>
     <g id="text_23">
      <!-- 10.0 -->
      <g style="fill: #1e1e1e" transform="translate(15.189063 15.825781)scale(0.1 -0.1)">
       <use xlink:href="#DejaVuSansMono-31"/>
       <use xlink:href="#DejaVuSansMono-30" x="60.205078"/>
       <use xlink:href="#DejaVuSansMono-2e" x="120.410156"/>
       <use xlink:href="#DejaVuSansMono-30" x="180.615234"/>
      </g>
     </g>
    </g>
   </g>
   <g id="patch_40">
    <path d="M 42.770313 108 
L 42.770313 7.2 
" style="fill: none; stroke: #1e1e1e; stroke-linejoin: miter; stroke-linecap: square"/>
   </g>
   <g id="patch_41">
    <path d="M 373.970313 108 
L 373.970313 7.2 
" style="fill: none; stroke: #1e1e1e; stroke-linejoin: miter; stroke-linecap: square"/>
   </g>
   <g id="patch_42">
    <path d="M 42.770313 108 
L 373.970313 108 
" style="fill: none; stroke: #1e1e1e; stroke-linejoin: miter; stroke-linecap: square"/>
   </g>
   <g id="patch_43">
    <path d="M 42.770313 7.2 
L 373.970313 7.2 
" style="fill: none; stroke: #1e1e1e; stroke-linejoin: miter; stroke-linecap: square"/>
   </g>
  </g>
  <g id="axes_3">
   <g id="patch_44">
    <path d="M 388.370313 442.08 
L 489.170313 442.08 
L 489.170313 122.4 
L 388.370313 122.4 
z
" style="fill: #fafafa"/>
   </g>
   <g id="patch_45">
    <path d="M 388.370313 427.549091 
L 484.370313 427.549091 
L 484.370313 419.580528 
L 388.370313 419.580528 
z
" clip-path="url(#pb8f631c7b1)" style="fill: #808080; opacity: 0.6"/>
   </g>
   <g id="patch_46">
    <path d="M 388.370313 418.174311 
L 388.370313 418.174311 
L 388.370313 410.205748 
L 388.370313 410.205748 
z
" clip-path="url(#pb8f631c7b1)" style="fill: #808080; opacity: 0.6"/>
   </g>
   <g id="patch_47">
    <path d="M 388.370313 408.799531 
L 388.370313 408.799531 
L 388.370313 400.830968 
L 388.370313 400.830968 
z
" clip-path="url(#pb8f631c7b1)" style="fill: #808080; opacity: 0.6"/>
   </g>
   <g id="patch_48">
    <path d="M 388.370313 399.424751 
L 388.370313 399.424751 
L 388.370313 391.456188 
L 388.370313 391.456188 
z
" clip-path="url(#pb8f631c7b1)" style="fill: #808080; opacity: 0.6"/>
   </g>
   <g id="patch_49">
    <path d="M 388.370313 390.049971 
L 388.370313 390.049971 
L 388.370313 382.081408 
L 388.370313 382.081408 
z
" clip-path="url(#pb8f631c7b1)" style="fill: #808080; opacity: 0.6"/>
   </g>
   <g id="patch_50">
    <path d="M 388.370313 380.675191 
L 388.370313 380.675191 
L 388.370313 372.706628 
L 388.370313 372.706628 
z
" clip-path="url(#pb8f631c7b1)" style="fill: #808080; opacity: 0.6"/>
   </g>
   <g id="patch_51">
    <path d="M 388.370313 371.300411 
L 388.370313 371.300411 
L 388.370313 363.331848 
L 388.370313 363.331848 
z
" clip-path="url(#pb8f631c7b1)" style="fill: #808080; opacity: 0.6"/>
   </g>
   <g id="patch_52">
    <path d="M 388.370313 361.92563 
L 388.370313 361.92563 
L 388.370313 353.957067 
L 388.370313 353.957067 
z
" clip-path="url(#pb8f631c7b1)" style="fill: #808080; opacity: 0.6"/>
   </g>
   <g id="patch_53">
    <path d="M 388.370313 352.55085 
L 388.370313 352.55085 
L 388.370313 344.582287 
L 388.370313 344.582287 
z
" clip-path="url(#pb8f631c7b1)" style="fill: #808080; opacity: 0.6"/>
   </g>
   <g id="patch_54">
    <path d="M 388.370313 343.17607 
L 388.370313 343.17607 
L 388.370313 335.207507 
L 388.370313 335.207507 
z
" clip-path="url(#pb8f631c7b1)" style="fill: #808080; opacity: 0.6"/>
   </g>
   <g id="patch_55">
    <path d="M 388.370313 333.80129 
L 388.370313 333.80129 
L 388.370313 325.832727 
L 388.370313 325.832727 
z
" clip-path="url(#pb8f631c7b1)" style="fill: #808080; opacity: 0.6"/>
   </g>
   <g id="patch_56">
    <path d="M 388.370313 324.42651 
L 388.370313 324.42651 
L 388.370313 316.457947 
L 388.370313 316.457947 
z
" clip-path="url(#pb8f631c7b1)" style="fill: #808080; opacity: 0.6"/>
   </g>
   <g id="patch_57">
    <path d="M 388.370313 315.05173 
L 388.370313 315.05173 
L 388.370313 307.083167 
L 388.370313 307.083167 
z
" clip-path="url(#pb8f631c7b1)" style="fill: #808080; opacity: 0.6"/>
   </g>
   <g id="patch_58">
    <path d="M 388.370313 305.67695 
L 388.370313 305.67695 
L 388.370313 297.708387 
L 388.370313 297.708387 
z
" clip-path="url(#pb8f631c7b1)" style="fill: #808080; opacity: 0.6"/>
   </g>
   <g id="patch_59">
    <path d="M 388.370313 296.30217 
L 388.370313 296.30217 
L 388.370313 288.333607 
L 388.370313 288.333607 
z
" clip-path="url(#pb8f631c7b1)" style="fill: #808080; opacity: 0.6"/>
   </g>
   <g id="patch_60">
    <path d="M 388.370313 286.92739 
L 388.370313 286.92739 
L 388.370313 278.958827 
L 388.370313 278.958827 
z
" clip-path="url(#pb8f631c7b1)" style="fill: #808080; opacity: 0.6"/>
   </g>
   <g id="patch_61">
    <path d="M 388.370313 277.55261 
L 388.370313 277.55261 
L 388.370313 269.584047 
L 388.370313 269.584047 
z
" clip-path="url(#pb8f631c7b1)" style="fill: #808080; opacity: 0.6"/>
   </g>
   <g id="patch_62">
    <path d="M 388.370313 268.17783 
L 388.370313 268.17783 
L 388.370313 260.209267 
L 388.370313 260.209267 
z
" clip-path="url(#pb8f631c7b1)" style="fill: #808080; opacity: 0.6"/>
   </g>
   <g id="patch_63">
    <path d="M 388.370313 258.80305 
L 388.370313 258.80305 
L 388.370313 250.834487 
L 388.370313 250.834487 
z
" clip-path="url(#pb8f631c7b1)" style="fill: #808080; opacity: 0.6"/>
   </g>
   <g id="patch_64">
    <path d="M 388.370313 249.42827 
L 388.370313 249.42827 
L 388.370313 241.459707 
L 388.370313 241.459707 
z
" clip-path="url(#pb8f631c7b1)" style="fill: #808080; opacity: 0.6"/>
   </g>
   <g id="patch_65">
    <path d="M 388.370313 240.05349 
L 388.370313 240.05349 
L 388.370313 232.084927 
L 388.370313 232.084927 
z
" clip-path="url(#pb8f631c7b1)" style="fill: #808080; opacity: 0.6"/>
   </g>
   <g id="patch_66">
    <path d="M 388.370313 230.67871 
L 388.370313 230.67871 
L 388.370313 222.710147 
L 388.370313 222.710147 
z
" clip-path="url(#pb8f631c7b1)" style="fill: #808080; opacity: 0.6"/>
   </g>
   <g id="patch_67">
    <path d="M 388.370313 221.30393 
L 388.370313 221.30393 
L 388.370313 213.335367 
L 388.370313 213.335367 
z
" clip-path="url(#pb8f631c7b1)" style="fill: #808080; opacity: 0.6"/>
   </g>
   <g id="patch_68">
    <path d="M 388.370313 211.92915 
L 388.370313 211.92915 
L 388.370313 203.960587 
L 388.370313 203.960587 
z
" clip-path="url(#pb8f631c7b1)" style="fill: #808080; opacity: 0.6"/>
   </g>
   <g id="patch_69">
    <path d="M 388.370313 202.55437 
L 388.370313 202.55437 
L 388.370313 194.585806 
L 388.370313 194.585806 
z
" clip-path="url(#pb8f631c7b1)" style="fill: #808080; opacity: 0.6"/>
   </g>
   <g id="patch_70">
    <path d="M 388.370313 193.179589 
L 388.370313 193.179589 
L 388.370313 185.211026 
L 388.370313 185.211026 
z
" clip-path="url(#pb8f631c7b1)" style="fill: #808080; opacity: 0.6"/>
   </g>
   <g id="patch_71">
    <path d="M 388.370313 183.804809 
L 388.370313 183.804809 
L 388.370313 175.836246 
L 388.370313 175.836246 
z
" clip-path="url(#pb8f631c7b1)" style="fill: #808080; opacity: 0.6"/>
   </g>
   <g id="patch_72">
    <path d="M 388.370313 174.430029 
L 388.370313 174.430029 
L 388.370313 166.461466 
L 388.370313 166.461466 
z
" clip-path="url(#pb8f631c7b1)" style="fill: #808080; opacity: 0.6"/>
   </g>
   <g id="patch_73">
    <path d="M 388.370313 165.055249 
L 388.370313 165.055249 
L 388.370313 157.086686 
L 388.370313 157.086686 
z
" clip-path="url(#pb8f631c7b1)" style="fill: #808080; opacity: 0.6"/>
   </g>
   <g id="patch_74">
    <path d="M 388.370313 155.680469 
L 388.370313 155.680469 
L 388.370313 147.711906 
L 388.370313 147.711906 
z
" clip-path="url(#pb8f631c7b1)" style="fill: #808080; opacity: 0.6"/>
   </g>
   <g id="patch_75">
    <path d="M 388.370313 146.305689 
L 441.856027 146.305689 
L 441.856027 138.337126 
L 388.370313 138.337126 
z
" clip-path="url(#pb8f631c7b1)" style="fill: #808080; opacity: 0.6"/>
   </g>
   <g id="matplotlib.axis_5">
    <g id="xtick_13">
     <g id="line2d_43">
      <g>
       <use xlink:href="#mecfeb2e67f" x="388.370313" y="442.08" style="fill: #1e1e1e; stroke: #1e1e1e; stroke-width: 0.8"/>
      </g>
     </g>
     <g id="text_24">
      <!-- 0 -->
      <g style="fill: #1e1e1e" transform="translate(385.360156 453.231562)scale(0.1 -0.1)">
       <use xlink:href="#DejaVuSansMono-30"/>
      </g>
     </g>
    </g>
    <g id="xtick_14">
     <g id="line2d_44">
      <g>
       <use xlink:href="#mecfeb2e67f" x="422.656027" y="442.08" style="fill: #1e1e1e; stroke: #1e1e1e; stroke-width: 0.8"/>
      </g>
     </g>
     <g id="text_25">
      <!-- 25 -->
      <g style="fill: #1e1e1e" transform="translate(416.635714 453.231562)scale(0.1 -0.1)">
       <use xlink:href="#DejaVuSansMono-32"/>
       <use xlink:href="#DejaVuSansMono-35" x="60.205078"/>
      </g>
     </g>
    </g>
    <g id="xtick_15">
     <g id="line2d_45">
      <g>
       <use xlink:href="#mecfeb2e67f" x="456.941741" y="442.08" style="fill: #1e1e1e; stroke: #1e1e1e; stroke-width: 0.8"/>
      </g>
     </g>
     <g id="text_26">
      <!-- 50 -->
      <g style="fill: #1e1e1e" transform="translate(450.921429 453.231562)scale(0.1 -0.1)">
       <use xlink:href="#DejaVuSansMono-35"/>
       <use xlink:href="#DejaVuSansMono-30" x="60.205078"/>
      </g>
     </g>
    </g>
   </g>
   <g id="matplotlib.axis_6">
    <g id="ytick_12">
     <g id="line2d_46">
      <g>
       <use xlink:href="#md11a4ce6ab" x="388.370313" y="427.549091" style="fill: #1e1e1e; stroke: #1e1e1e; stroke-width: 0.8"/>
      </g>
     </g>
    </g>
    <g id="ytick_13">
     <g id="line2d_47">
      <g>
       <use xlink:href="#md11a4ce6ab" x="388.370313" y="369.425455" style="fill: #1e1e1e; stroke: #1e1e1e; stroke-width: 0.8"/>
      </g>
     </g>
    </g>
    <g id="ytick_14">
     <g id="line2d_48">
      <g>
       <use xlink:href="#md11a4ce6ab" x="388.370313" y="311.301818" style="fill: #1e1e1e; stroke: #1e1e1e; stroke-width: 0.8"/>
      </g>
     </g>
    </g>
    <g id="ytick_15">
     <g id="line2d_49">
      <g>
       <use xlink:href="#md11a4ce6ab" x="388.370313" y="253.178182" style="fill: #1e1e1e; stroke: #1e1e1e; stroke-width: 0.8"/>
      </g>
     </g>
    </g>
    <g id="ytick_16">
     <g id="line2d_50">
      <g>
       <use xlink:href="#md11a4ce6ab" x="388.370313" y="195.054545" style="fill: #1e1e1e; stroke: #1e1e1e; stroke-width: 0.8"/>
      </g>
     </g>
    </g>
    <g id="ytick_17">
     <g id="line2d_51">
      <g>
       <use xlink:href="#md11a4ce6ab" x="388.370313" y="136.930909" style="fill: #1e1e1e; stroke: #1e1e1e; stroke-width: 0.8"/>
      </g>
     </g>
    </g>
   </g>
   <g id="patch_76">
    <path d="M 388.370313 442.08 
L 388.370313 122.4 
" style="fill: none; stroke: #1e1e1e; stroke-linejoin: miter; stroke-linecap: square"/>
   </g>
   <g id="patch_77">
    <path d="M 489.170313 442.08 
L 489.170313 122.4 
" style="fill: none; stroke: #1e1e1e; stroke-linejoin: miter; stroke-linecap: square"/>
   </g>
   <g id="patch_78">
    <path d="M 388.370313 442.08 
L 489.170313 442.08 
" style="fill: none; stroke: #1e1e1e; stroke-linejoin: miter; stroke-linecap: square"/>
   </g>
   <g id="patch_79">
    <path d="M 388.370313 122.4 
L 489.170313 122.4 
" style="fill: none; stroke: #1e1e1e; stroke-linejoin: miter; stroke-linecap: square"/>
   </g>
  </g>
 </g>
 <defs>
  <clipPath id="pba8bfe476e">
   <rect x="42.770313" y="122.4" width="331.2" height="319.68"/>
  </clipPath>
  <clipPath id="p2171671fb3">
   <rect x="42.770313" y="7.2" width="331.2" height="100.8"/>
  </clipPath>
  <clipPath id="pb8f631c7b1">
   <rect x="388.370313" y="122.4" width="100.8" height="319.68"/>
  </clipPath>
 </defs>
</svg>
